<?xml version="1.0" encoding="UTF-8"?>
<svg xmlns="http://www.w3.org/2000/svg" viewBox="0 0 659.72 292.97">
  <defs>
    <style>
      .cls-1 {
        fill: none;
      }

      .cls-2 {
        font-size: 110px;
      }

      .cls-2, .cls-3 {
        font-family: BCAlphapipeTSB-BoldItalic, 'BC Alphapipe';
        font-style: italic;
        font-weight: 700;
      }

      .cls-2, .cls-3, .cls-4, .cls-5 {
        fill: #336;
      }

      .cls-3 {
        font-size: 100px;
        letter-spacing: -.02em;
      }

      .cls-4 {
        stroke: #336;
      }

      .cls-4, .cls-6 {
        stroke-miterlimit: 10;
      }

      .cls-6 {
        fill: #6ec3ce;
        stroke: #6ec3ce;
      }
    </style>
  </defs>
  <g id="_レイヤー_5のコピー_2" data-name="レイヤー 5のコピー 2">
    <path class="cls-6" d="m471.41,112.03c-1.64,3.37-9.18,18.68-23.78,25.74-.11-1.46-.32-2.7-.72-4.51-.41-2.72-1.03-5.38-1.88-7.86-.18-.64-.4-1.21-.65-1.75-2.07-5.17-5.25-9.45-9.77-11.94,3.16-3.62,6.28-7.58,9.24-11.87.18-.27.36-.53.54-.8,14.89,2.1,25.3,11.41,27.02,12.99Z"/>
  </g>
  <g id="_レイヤー_5のコピー" data-name="レイヤー 5のコピー">
    <path class="cls-4" d="m441.68,166.68c8.27-12.02,9.87-48.33-9.04-55.91,11.33,16.74,14.22,34.12,9.04,55.91Z"/>
    <g>
      <path class="cls-4" d="m348.87,106.49c-1.19-1.85.1-5.86,2.67-7.67,11.67-6.75,25.79,19.06,23.49,20.8-1.55,1.12-6.5-13.17-19.43-12.11-2.07.17-5.54.83-6.74-1.03Z"/>
      <path class="cls-6" d="m354.81,124.27c-2.63-.63-2.83-5.56-.37-6.6,4.94-3.62,16.77-.01,16.58,1.26-.16,1.06-8.22-2.56-13.04,3.04-.77.9-1.9,2.54-3.18,2.3Z"/>
      <path class="cls-4" d="m374.84,131.77c-2.46-1.58-3.48-5.9-2-8.8,0,0,1.56-3.06,6.8-4,11.61-2.09,33.08,34.1,38.8,44-5.53-5.68-9.88-10.39-12.8-13.6-5.86-6.45-9.08-10.32-14.8-13.6-3.36-1.93-5.92-3.4-9.6-3.6-3.17-.18-4.65.73-6.4-.4Z"/>
      <path class="cls-6" d="m395.04,95.95c.85-13.63,11.56-30.66,21.35-41.07,1.44-1.53,2.89-2.95,4.32-4.27-5.24-14.64-14.36-23.84-17.07-26.45-2.94,2.11-24.47,18.11-26.4,47.2-2.08,31.38,20.46,50.85,22.8,52.8.5-.43,1.66-1.42,3.19-2.95-5.79-8.42-8.69-17.13-8.19-25.26Z"/>
      <g>
        <path class="cls-1" d="m430.56,64.1c7.26.94,12.08,6.48,14.29,12.15.65-2.44,1.04-4.2,1.17-4.79,1.75-8.11,3.17-19.8,1.25-34.14-6.74,3.9-11.76,8.01-15.23,11.25-7,6.53-11.85,13.35-15.4,19.37,3.15-2.12,8.16-4.57,13.92-3.83Z"/>
        <path class="cls-1" d="m422.19,118.71c2.55-2.79,3.84-4.18,4.97-5.6,5.82-7.24,9.71-14.68,12.37-21.04,1.11-4.39,1.98-10.45-1.51-15.46-.9-1.3-4.04-4.17-8-4.98-1.14-.23-3.81-1.26-9.27,1.24-6.36,2.92-9.86,7.67-11.83,10.12-1.51,3.26-2.66,6.16-3.68,9.97-1.85,6.88-4.97,23.13,2.26,40.45,3.29-3,8.36-7.79,14.69-14.71Z"/>
        <path class="cls-5" d="m408.38,134.38c29.51-21.82,61.79-54.37,39.77-97.57,1.6-.9,3.3-1.79,5.09-2.65-1.66.4-3.54.92-5.61,1.58-.29-.59-1.12-3.26-1.39-3.78.1.62.74,3.35.83,3.97-34.72,10.51-78.68,63.31-39.61,97.52-5.67,4.96-5.65,5.1.56,1.17,7.36,26.86,56.52,32.78,63.22,31.14-27.17-5.65-48.98-17.57-62.86-31.39Zm23.66-85.81c3.47-3.23,8.48-7.35,15.23-11.25,2.02,17.68.56,26.74-2.41,38.93-3.88-11.99-18.76-15.81-28.21-8.32,3.55-6.02,8.4-12.83,15.4-19.37Zm-26.8,44.4c10.21-40.96,72.15-21.34,2.26,40.45-7.23-17.32-4.11-33.57-2.26-40.45Z"/>
      </g>
      <path class="cls-4" d="m408.44,129.37c6.69-15.12-3.22-25.84,5.76-38.82,5.17-7.27,18.3-5.95,16.09,4.55-1.06,4.48-5.36,6.59-10.42,12.18-3.62,4-8.13,12.35-11.44,22.1Z"/>
    </g>
  </g>
  <g id="Text">
    <text class="cls-3" transform="translate(35.72 187.42)"><tspan x="0" y="0">Deriving</tspan></text>
    <text class="cls-2" transform="translate(472.72 191.58)"><tspan x="0" y="0">via</tspan></text>
  </g>
</svg>