<?xml version="1.0" encoding="UTF-8"?>
<svg xmlns="http://www.w3.org/2000/svg" viewBox="0 0 612.34 793.47">
  <defs>
    <style>
      .cls-1 {
        fill: none;
      }

      .cls-2 {
        stroke: #336;
      }

      .cls-2, .cls-3 {
        fill: #336;
      }

      .cls-2, .cls-4 {
        stroke-miterlimit: 10;
      }

      .cls-4 {
        fill: #6ec3ce;
        stroke: #6ec3ce;
      }
    </style>
  </defs>
  <g id="_レイヤー_5のコピー_2" data-name="レイヤー 5のコピー 2">
    <path class="cls-4" d="m432.29,469.03c-1.64,3.37-9.18,18.68-23.78,25.74-.11-1.46-.32-2.7-.72-4.51-.41-2.72-1.03-5.38-1.88-7.86-.18-.64-.4-1.21-.65-1.75-2.07-5.17-5.25-9.45-9.77-11.94,3.16-3.62,6.28-7.58,9.24-11.87.18-.27.36-.53.54-.8,14.89,2.1,25.3,11.41,27.02,12.99Z"/>
  </g>
  <g id="_レイヤー_5のコピー" data-name="レイヤー 5のコピー">
    <path class="cls-2" d="m402.56,523.68c8.27-12.02,9.87-48.33-9.04-55.91,11.33,16.74,14.22,34.12,9.04,55.91Z"/>
    <g>
      <path class="cls-2" d="m309.75,463.49c-1.19-1.85.1-5.86,2.67-7.67,11.67-6.75,25.79,19.06,23.49,20.8-1.55,1.12-6.5-13.17-19.43-12.11-2.07.17-5.54.83-6.74-1.03Z"/>
      <path class="cls-4" d="m315.69,481.27c-2.63-.63-2.83-5.56-.37-6.6,4.94-3.62,16.77-.01,16.58,1.26-.16,1.06-8.22-2.56-13.04,3.04-.77.9-1.9,2.54-3.18,2.3Z"/>
      <path class="cls-2" d="m335.72,488.77c-2.46-1.58-3.48-5.9-2-8.8,0,0,1.56-3.06,6.8-4,11.61-2.09,33.08,34.1,38.8,44-5.53-5.68-9.88-10.39-12.8-13.6-5.86-6.45-9.08-10.32-14.8-13.6-3.36-1.93-5.92-3.4-9.6-3.6-3.17-.18-4.65.73-6.4-.4Z"/>
      <path class="cls-4" d="m355.92,452.95c.85-13.63,11.56-30.66,21.35-41.07,1.44-1.53,2.89-2.95,4.32-4.27-5.24-14.64-14.36-23.84-17.07-26.45-2.94,2.11-24.47,18.11-26.4,47.2-2.08,31.38,20.46,50.85,22.8,52.8.5-.43,1.66-1.42,3.19-2.95-5.79-8.42-8.69-17.13-8.19-25.26Z"/>
      <g>
        <path class="cls-1" d="m391.44,421.1c7.26.94,12.08,6.48,14.29,12.15.65-2.44,1.04-4.2,1.17-4.79,1.75-8.11,3.17-19.8,1.25-34.14-6.74,3.9-11.76,8.01-15.23,11.25-7,6.53-11.85,13.35-15.4,19.37,3.15-2.12,8.16-4.57,13.92-3.83Z"/>
        <path class="cls-1" d="m383.07,475.71c2.55-2.79,3.84-4.18,4.97-5.6,5.82-7.24,9.71-14.68,12.37-21.04,1.11-4.39,1.98-10.45-1.51-15.46-.9-1.3-4.04-4.17-8-4.98-1.14-.23-3.81-1.26-9.27,1.24-6.36,2.92-9.86,7.67-11.83,10.12-1.51,3.26-2.66,6.16-3.68,9.97-1.85,6.88-4.97,23.13,2.26,40.45,3.29-3,8.36-7.79,14.69-14.71Z"/>
        <path class="cls-3" d="m369.26,491.38c29.51-21.82,61.79-54.37,39.77-97.57,1.6-.9,3.3-1.79,5.09-2.65-1.66.4-3.54.92-5.61,1.58-.29-.59-1.12-3.26-1.39-3.78.1.62.74,3.35.83,3.97-34.72,10.51-78.68,63.31-39.61,97.52-5.67,4.96-5.65,5.1.56,1.17,7.36,26.86,56.52,32.78,63.22,31.14-27.17-5.65-48.98-17.57-62.86-31.39Zm23.66-85.81c3.47-3.23,8.48-7.35,15.23-11.25,2.02,17.68.56,26.74-2.41,38.93-3.88-11.99-18.76-15.81-28.21-8.32,3.55-6.02,8.4-12.83,15.4-19.37Zm-26.8,44.4c10.21-40.96,72.15-21.34,2.26,40.45-7.23-17.32-4.11-33.57-2.26-40.45Z"/>
      </g>
      <path class="cls-2" d="m369.32,486.37c6.69-15.12-3.22-25.84,5.76-38.82,5.17-7.27,18.3-5.95,16.09,4.55-1.06,4.48-5.36,6.59-10.42,12.18-3.62,4-8.13,12.35-11.44,22.1Z"/>
    </g>
  </g>
  <g id="Text">
    <g>
      <path class="cls-3" d="m11.4,480.21c.7-3.2,3.8-5.8,7-5.8h18.6c17.2,0,29.9,12.2,29.9,28.6,0,21.2-18.5,41.4-41.3,41.4H4.9c-3.2,0-5.4-2.7-4.8-5.9l11.3-58.3Zm14.8,53.2c15.9,0,28.5-14.3,28.5-28.9,0-11-7.7-19.2-19-19.2h-13.5l-9.4,48.1h13.4Z"/>
      <path class="cls-3" d="m70.4,523.92c0-16.3,13.7-31.5,31.2-31.5,8,0,13.6,3.3,16.8,6.5,1.1,1.1,1.6,2.3,1.6,3.8,0,1.3-.6,3-2,4.4l-18.7,18c-1.3,1.2-3.2,1.9-4.7,1.9-3,0-4.6-2.3-4.6-4.4,0-1.8.8-3.5,2-4.7l14.1-13.6c-1.3-1.1-3.4-1.7-5.6-1.7-10.5,0-19,9.7-19,19.7,0,7.3,5.2,12.9,12.8,12.9,4.5,0,9-2.1,12.1-4.9,1.5-1.2,3.1-2.1,4.9-2.1,3,0,4.5,2.3,4.5,4.4,0,1.9-.9,3.8-2.5,5.1-4.5,4.1-11.7,7.7-20.1,7.7-13.4,0-22.8-9.4-22.8-21.5Z"/>
      <path class="cls-3" d="m127.1,515.92c2.9-15.3,13.6-23.5,26.9-23.5,3.2,0,4.6,2.1,4.6,4,0,3.7-3.4,6.2-6.2,6.2-6.8,0-12.6,4.5-14.3,13.3l-4.7,23.8c-.6,3.1-3.4,5.6-6.5,5.6s-5.1-2.5-4.5-5.6l4.7-23.8Z"/>
      <path class="cls-3" d="m164.2,498.01c.6-3.1,3.4-5.5,6.5-5.5s5.1,2.4,4.5,5.5l-8.2,41.7c-.6,3.1-3.4,5.6-6.5,5.6s-5.1-2.5-4.5-5.6l8.2-41.7Zm2.3-16.5c0-4.6,4.2-7.8,7.9-7.8s5.3,2.7,5.3,5.1c0,4.6-4.2,7.9-7.8,7.9s-5.4-2.8-5.4-5.2Z"/>
      <path class="cls-3" d="m186,498.01c.6-3.1,3.4-5.5,6.5-5.5s5.1,2.4,4.5,5.5l-5.3,26.9,31.6-30.4c1.5-1.5,3.3-2,4.8-2,3.1,0,4.5,2.3,4.5,4.4,0,1.8-1,3.7-1.9,4.6l-43,41.6c-1.5,1.5-3.3,2.2-5.4,2.2-3,0-5-2.5-4.5-5.6l8.2-41.7Z"/>
      <path class="cls-3" d="m237.89,498.01c.6-3.1,3.4-5.5,6.5-5.5s5.1,2.4,4.5,5.5l-8.2,41.7c-.6,3.1-3.4,5.6-6.5,5.6s-5.1-2.5-4.5-5.6l8.2-41.7Zm2.3-16.5c0-4.6,4.2-7.8,7.9-7.8s5.3,2.7,5.3,5.1c0,4.6-4.2,7.9-7.8,7.9s-5.4-2.8-5.4-5.2Z"/>
      <path class="cls-3" d="m256.39,514.92c2.7-14.3,13.8-22.5,26.4-22.5s21,9.7,18.2,24l-4.5,23.3c-.6,3.1-3.5,5.6-6.5,5.6s-5.1-2.5-4.5-5.6l4.8-24.4c1.6-8.3-2.7-12.7-9.1-12.7s-12.2,4.4-13.9,12.7l-4.8,24.4c-.6,3.1-3.4,5.6-6.5,5.6s-5.1-2.5-4.5-5.6l4.9-24.8Z"/>
      <path class="cls-3" d="m308.69,523.92c0-16.3,13-31.5,29.9-31.5,6.9,0,12.5,2.7,16.3,7.1l.3-1.5c.6-3.1,3.4-5.5,6.5-5.5s5.1,2.4,4.5,5.5l-7.8,39.9c-2.9,15-15.7,26.5-30.9,26.5-8.5,0-14.2-3.5-17.7-7.3-.9-1-1.6-1.9-1.6-3.4,0-3.7,3.4-6.2,6.3-6.2,2.2,0,3.2,1.2,4.3,2.5,2,2.5,5.3,4.2,9.8,4.2,8.4,0,15.9-6.4,18.3-14.3-4.7,3.4-10.4,5.5-16.6,5.5-12.8,0-21.6-9.5-21.6-21.5Zm42.7-8.5c0-7.3-5-12.8-12.6-12.8-10.5,0-19,9.7-19,19.7,0,7.3,5.2,12.9,12.8,12.9,10.5,0,18.8-9.7,18.8-19.8Z"/>
    </g>
    <g>
      <path class="cls-3" d="m446.14,497.54c.66-3.41,3.74-6.05,7.15-6.05s5.61,2.64,4.95,6.05l-5.83,29.59,34.76-33.44c1.65-1.65,3.63-2.2,5.28-2.2,3.41,0,4.95,2.53,4.95,4.84,0,1.98-1.1,4.07-2.09,5.06l-47.3,45.76c-1.65,1.65-3.63,2.42-5.94,2.42-3.3,0-5.5-2.75-4.95-6.16l9.02-45.87Z"/>
      <path class="cls-3" d="m505.43,497.54c.66-3.41,3.74-6.05,7.15-6.05s5.61,2.64,4.95,6.05l-9.02,45.87c-.66,3.41-3.74,6.16-7.15,6.16s-5.61-2.75-4.95-6.16l9.02-45.87Zm2.53-18.15c0-5.06,4.62-8.58,8.69-8.58s5.83,2.97,5.83,5.61c0,5.06-4.62,8.69-8.58,8.69s-5.94-3.08-5.94-5.72Z"/>
      <path class="cls-3" d="m524.24,526.03c0-17.93,14.3-34.65,32.89-34.65,7.59,0,13.75,2.97,17.93,7.81l.33-1.65c.66-3.41,3.74-6.05,7.15-6.05s5.61,2.64,4.95,6.05l-9.02,45.87c-.55,3.41-3.74,6.16-7.15,6.16s-5.5-2.64-4.95-6.05c-5.17,3.85-11.44,6.16-18.37,6.16-14.08,0-23.76-10.45-23.76-23.65Zm46.97-9.35c0-8.03-5.5-14.08-13.86-14.08-11.55,0-20.9,10.67-20.9,21.67,0,8.03,5.72,14.19,14.08,14.19,11.55,0,20.68-10.67,20.68-21.78Z"/>
    </g>
  </g>
</svg>