<?xml version="1.0" encoding="utf-8"?>
<!-- Generator: Adobe Illustrator 27.4.0, SVG Export Plug-In . SVG Version: 6.00 Build 0)  -->
<svg version="1.1" id="レイヤー_1" xmlns="http://www.w3.org/2000/svg" xmlns:xlink="http://www.w3.org/1999/xlink" x="0px"
	 y="0px" viewBox="0 0 587.6 186.3" style="enable-background:new 0 0 587.6 186.3;" xml:space="preserve">
<style type="text/css">
	.st0{fill:#6EC3CE;stroke:#6EC3CE;stroke-miterlimit:10;}
	.st1{fill:#333366;stroke:#333366;stroke-miterlimit:10;}
	.st2{fill:none;}
	.st3{fill:#333366;}
</style>
<g id="_レイヤー_5のコピー_2">
	<path class="st0" d="M432.3,90.9c-1.6,3.4-9.2,18.7-23.8,25.7c-0.1-1.5-0.3-2.7-0.7-4.5c-0.4-2.7-1-5.4-1.9-7.9
		c-0.2-0.6-0.4-1.2-0.6-1.8c-2.1-5.2-5.2-9.5-9.8-11.9c3.2-3.6,6.3-7.6,9.2-11.9c0.2-0.3,0.4-0.5,0.5-0.8
		C420.2,80,430.6,89.3,432.3,90.9z"/>
</g>
<g id="_レイヤー_5のコピー">
	<path class="st1" d="M402.6,145.5c8.3-12,9.9-48.3-9-55.9C404.8,106.3,407.7,123.7,402.6,145.5z"/>
	<g>
		<path class="st1" d="M309.8,85.3c-1.2-1.9,0.1-5.9,2.7-7.7c11.7-6.8,25.8,19.1,23.5,20.8c-1.5,1.1-6.5-13.2-19.4-12.1
			C314.4,86.5,310.9,87.2,309.8,85.3L309.8,85.3z"/>
		<path class="st0" d="M315.7,103.1c-2.6-0.6-2.8-5.6-0.4-6.6c4.9-3.6,16.8,0,16.6,1.3c-0.2,1.1-8.2-2.6-13,3
			C318.1,101.7,317,103.4,315.7,103.1L315.7,103.1z"/>
		<path class="st1" d="M335.7,110.6c-2.5-1.6-3.5-5.9-2-8.8c0,0,1.6-3.1,6.8-4c11.6-2.1,33.1,34.1,38.8,44
			c-5.5-5.7-9.9-10.4-12.8-13.6c-5.9-6.5-9.1-10.3-14.8-13.6c-3.4-1.9-5.9-3.4-9.6-3.6C338.9,110.8,337.5,111.7,335.7,110.6
			L335.7,110.6z"/>
		<path class="st0" d="M355.9,74.8c0.9-13.6,11.6-30.7,21.4-41.1c1.4-1.5,2.9-3,4.3-4.3C376.4,14.8,367.2,5.6,364.5,3
			c-2.9,2.1-24.5,18.1-26.4,47.2c-2.1,31.4,20.5,50.9,22.8,52.8c0.5-0.4,1.7-1.4,3.2-3C358.3,91.6,355.4,82.9,355.9,74.8L355.9,74.8
			z"/>
		<g>
			<path class="st2" d="M391.4,42.9c7.3,0.9,12.1,6.5,14.3,12.1c0.6-2.4,1-4.2,1.2-4.8c1.8-8.1,3.2-19.8,1.2-34.1
				c-6.7,3.9-11.8,8-15.2,11.2c-7,6.5-11.9,13.4-15.4,19.4C380.7,44.7,385.7,42.2,391.4,42.9L391.4,42.9z"/>
			<path class="st2" d="M383.1,97.5c2.5-2.8,3.8-4.2,5-5.6c5.8-7.2,9.7-14.7,12.4-21c1.1-4.4,2-10.5-1.5-15.5c-0.9-1.3-4-4.2-8-5
				c-1.1-0.2-3.8-1.3-9.3,1.2c-6.4,2.9-9.9,7.7-11.8,10.1c-1.5,3.3-2.7,6.2-3.7,10c-1.9,6.9-5,23.1,2.3,40.5
				C371.7,109.2,376.7,104.5,383.1,97.5L383.1,97.5z"/>
			<path class="st3" d="M369.3,113.2c29.5-21.8,61.8-54.4,39.8-97.6c1.6-0.9,3.3-1.8,5.1-2.6c-1.7,0.4-3.5,0.9-5.6,1.6
				c-0.3-0.6-1.1-3.3-1.4-3.8c0.1,0.6,0.7,3.4,0.8,4c-34.7,10.5-78.7,63.3-39.6,97.5c-5.7,5-5.6,5.1,0.6,1.2
				c7.4,26.9,56.5,32.8,63.2,31.1C404.9,138.9,383.1,127,369.3,113.2L369.3,113.2z M392.9,27.4c3.5-3.2,8.5-7.4,15.2-11.2
				c2,17.7,0.6,26.7-2.4,38.9c-3.9-12-18.8-15.8-28.2-8.3C381.1,40.8,385.9,33.9,392.9,27.4L392.9,27.4z M366.1,71.8
				c10.2-41,72.1-21.3,2.3,40.5C361.2,94.9,364.3,78.7,366.1,71.8z"/>
		</g>
		<path class="st1" d="M369.3,108.2c6.7-15.1-3.2-25.8,5.8-38.8c5.2-7.3,18.3-6,16.1,4.5c-1.1,4.5-5.4,6.6-10.4,12.2
			C377.1,90.1,372.6,98.5,369.3,108.2L369.3,108.2z"/>
	</g>
</g>
<g id="Text">
	<g>
		<path class="st3" d="M11.4,102c0.7-3.2,3.8-5.8,7-5.8H37c17.2,0,29.9,12.2,29.9,28.6c0,21.2-18.5,41.4-41.3,41.4H4.9
			c-3.2,0-5.4-2.7-4.8-5.9L11.4,102L11.4,102z M26.2,155.2c15.9,0,28.5-14.3,28.5-28.9c0-11-7.7-19.2-19-19.2H22.2l-9.4,48.1H26.2z"
			/>
		<path class="st3" d="M70.4,145.8c0-16.3,13.7-31.5,31.2-31.5c8,0,13.6,3.3,16.8,6.5c1.1,1.1,1.6,2.3,1.6,3.8c0,1.3-0.6,3-2,4.4
			l-18.7,18c-1.3,1.2-3.2,1.9-4.7,1.9c-3,0-4.6-2.3-4.6-4.4c0-1.8,0.8-3.5,2-4.7l14.1-13.6c-1.3-1.1-3.4-1.7-5.6-1.7
			c-10.5,0-19,9.7-19,19.7c0,7.3,5.2,12.9,12.8,12.9c4.5,0,9-2.1,12.1-4.9c1.5-1.2,3.1-2.1,4.9-2.1c3,0,4.5,2.3,4.5,4.4
			c0,1.9-0.9,3.8-2.5,5.1c-4.5,4.1-11.7,7.7-20.1,7.7C79.8,167.3,70.4,157.9,70.4,145.8z"/>
		<path class="st3" d="M127.1,137.8c2.9-15.3,13.6-23.5,26.9-23.5c3.2,0,4.6,2.1,4.6,4c0,3.7-3.4,6.2-6.2,6.2
			c-6.8,0-12.6,4.5-14.3,13.3l-4.7,23.8c-0.6,3.1-3.4,5.6-6.5,5.6s-5.1-2.5-4.5-5.6C122.4,161.6,127.1,137.8,127.1,137.8z"/>
		<path class="st3" d="M164.2,119.9c0.6-3.1,3.4-5.5,6.5-5.5s5.1,2.4,4.5,5.5l-8.2,41.7c-0.6,3.1-3.4,5.6-6.5,5.6s-5.1-2.5-4.5-5.6
			L164.2,119.9z M166.5,103.4c0-4.6,4.2-7.8,7.9-7.8s5.3,2.7,5.3,5.1c0,4.6-4.2,7.9-7.8,7.9S166.5,105.8,166.5,103.4z"/>
		<path class="st3" d="M186,119.9c0.6-3.1,3.4-5.5,6.5-5.5s5.1,2.4,4.5,5.5l-5.3,26.9l31.6-30.4c1.5-1.5,3.3-2,4.8-2
			c3.1,0,4.5,2.3,4.5,4.4c0,1.8-1,3.7-1.9,4.6l-43,41.6c-1.5,1.5-3.3,2.2-5.4,2.2c-3,0-5-2.5-4.5-5.6L186,119.9L186,119.9z"/>
		<path class="st3" d="M237.9,119.9c0.6-3.1,3.4-5.5,6.5-5.5s5.1,2.4,4.5,5.5l-8.2,41.7c-0.6,3.1-3.4,5.6-6.5,5.6s-5.1-2.5-4.5-5.6
			L237.9,119.9z M240.2,103.4c0-4.6,4.2-7.8,7.9-7.8s5.3,2.7,5.3,5.1c0,4.6-4.2,7.9-7.8,7.9S240.2,105.8,240.2,103.4z"/>
		<path class="st3" d="M256.4,136.8c2.7-14.3,13.8-22.5,26.4-22.5s21,9.7,18.2,24l-4.5,23.3c-0.6,3.1-3.5,5.6-6.5,5.6
			s-5.1-2.5-4.5-5.6l4.8-24.4c1.6-8.3-2.7-12.7-9.1-12.7s-12.2,4.4-13.9,12.7l-4.8,24.4c-0.6,3.1-3.4,5.6-6.5,5.6s-5.1-2.5-4.5-5.6
			L256.4,136.8z"/>
		<path class="st3" d="M308.7,145.8c0-16.3,13-31.5,29.9-31.5c6.9,0,12.5,2.7,16.3,7.1l0.3-1.5c0.6-3.1,3.4-5.5,6.5-5.5
			s5.1,2.4,4.5,5.5l-7.8,39.9c-2.9,15-15.7,26.5-30.9,26.5c-8.5,0-14.2-3.5-17.7-7.3c-0.9-1-1.6-1.9-1.6-3.4c0-3.7,3.4-6.2,6.3-6.2
			c2.2,0,3.2,1.2,4.3,2.5c2,2.5,5.3,4.2,9.8,4.2c8.4,0,15.9-6.4,18.3-14.3c-4.7,3.4-10.4,5.5-16.6,5.5
			C317.5,167.3,308.7,157.8,308.7,145.8L308.7,145.8z M351.4,137.3c0-7.3-5-12.8-12.6-12.8c-10.5,0-19,9.7-19,19.7
			c0,7.3,5.2,12.9,12.8,12.9C343.1,157.1,351.4,147.4,351.4,137.3L351.4,137.3z"/>
	</g>
	<g>
		<path class="st3" d="M446.1,119.4c0.7-3.4,3.7-6,7.1-6s5.6,2.6,5,6l-5.8,29.6l34.8-33.4c1.6-1.6,3.6-2.2,5.3-2.2
			c3.4,0,5,2.5,5,4.8c0,2-1.1,4.1-2.1,5.1L448,169c-1.6,1.7-3.6,2.4-5.9,2.4c-3.3,0-5.5-2.8-5-6.2L446.1,119.4L446.1,119.4z"/>
		<path class="st3" d="M505.4,119.4c0.7-3.4,3.7-6,7.2-6s5.6,2.6,5,6l-9,45.9c-0.7,3.4-3.7,6.2-7.1,6.2s-5.6-2.8-5-6.2L505.4,119.4
			L505.4,119.4z M508,101.2c0-5.1,4.6-8.6,8.7-8.6s5.8,3,5.8,5.6c0,5.1-4.6,8.7-8.6,8.7S508,103.9,508,101.2L508,101.2z"/>
		<path class="st3" d="M524.2,147.9c0-17.9,14.3-34.6,32.9-34.6c7.6,0,13.8,3,17.9,7.8l0.3-1.6c0.7-3.4,3.7-6,7.2-6s5.6,2.6,5,6
			l-9,45.9c-0.5,3.4-3.7,6.2-7.2,6.2s-5.5-2.6-5-6c-5.2,3.8-11.4,6.2-18.4,6.2C533.9,171.5,524.2,161.1,524.2,147.9L524.2,147.9z
			 M571.2,138.5c0-8-5.5-14.1-13.9-14.1c-11.5,0-20.9,10.7-20.9,21.7c0,8,5.7,14.2,14.1,14.2C562.1,160.3,571.2,149.6,571.2,138.5z"
			/>
	</g>
</g>
</svg>
