<?xml version="1.0" encoding="UTF-8"?>
<svg xmlns="http://www.w3.org/2000/svg" xmlns:xlink="http://www.w3.org/1999/xlink" viewBox="0 0 994.13 234.61">
  <defs>
    <style>
      .cls-1 {
        fill: #fff;
      }

      .cls-2 {
        fill: url(#_名称未設定グラデーション_37);
      }

      .cls-3 {
        fill: #336;
      }

      .cls-4 {
        fill: #6ec3ce;
      }
    </style>
    <radialGradient id="_名称未設定グラデーション_37" data-name="名称未設定グラデーション 37" cx="373.43" cy="82.85" fx="373.43" fy="82.85" r="17.65" gradientUnits="userSpaceOnUse">
      <stop offset="0" stop-color="#fff"/>
      <stop offset="0" stop-color="#fbfdfd"/>
      <stop offset=".11" stop-color="#afdee4"/>
      <stop offset=".19" stop-color="#80cad4"/>
      <stop offset=".23" stop-color="#6ec3ce"/>
      <stop offset=".99" stop-color="#7c7c9d" stop-opacity=".68"/>
    </radialGradient>
  </defs>
  <g id="Butterfly">
    <g>
      <path class="cls-1" d="m80.96,171.91c-15.46-32.33-12.29-79.51,17.26-92.78,13.96-6.14,22.59-.45,28.95,6.6,6.55,9.4,3.68,20.73,2.73,24.45-9.65,25.36-29.57,44.08-48.94,61.73Zm8.04-72.26c-6.69,16.55-10.22,30.03-4.02,54.94,4.49-4.32,8.96-8.92,13.53-13.91h0c10.24-11.89,29.15-33.41,20.45-49.23-8.94-11.11-24.2-.41-29.96,8.2Z"/>
      <path class="cls-1" d="m116.85,232.13c12.59-45.27,15.38-71.87-14.16-109.25,15.48,5.53,30.15,11.09,34.98,30.33,9.59,33.52-3.69,56.96-20.82,78.92Z"/>
      <path class="cls-1" d="m73.04,157.78C26.93,124.7,25.62,45.77,78.23,13c8.93,8.14,21,21.9,27.86,42.78-25.57,23.36-49.21,60.98-22.37,92.2-3.46,3.55-7.34,7.09-10.68,9.8Zm4.27-131.62c-30.34,21.75-40.99,77.03-11.98,109.71-3-7.5-4.33-14.97-3.89-22.1h0c1.48-20.87,17.42-45.53,32.96-60.78-4.94-12.27-11.95-21.31-17.09-26.83Z"/>
      <path class="cls-1" d="m88.66,160.13l-9.31-3.63c8.25-18.17-4.76-34.03,8.22-52.39,9.17-13.98,34.59-9.11,30.21,9.86-1.99,8.36-9.41,11.97-14.92,18.38-3.85,3.64-10.91,17.79-14.2,27.79Zm14.82-54.2c-11.51.77-12.89,15.88-11.79,24.57,3.85-7,13.85-12.51,16.32-18.65.69-5.77-1.51-5.44-4.53-5.92Z"/>
      <path class="cls-1" d="m121.67,234.61c-12.62-13.05-35.3-35.87-47.01-49.05-8.6-9.47-15.6-16.89-26.68-18.78-4-.22-6.56,1.31-10.86-1.31-9.31-7.87-8.92-22.21,8.14-25.99,29.64.19,59.32,69.4,76.42,95.13Zm-74.54-77.85c6.87-.07,12.05,2.93,17.45,6.14-8.34-9.85-14.42-14.15-17.55-13.58-6.41,1.2-6.86,4.44-4.56,7.7,1.49-.03,2.8-.28,4.66-.26Zm-5.5-4.82s-.03.05-.04.08c.03-.05.04-.08.04-.08Z"/>
      <path class="cls-1" d="m131.31,176.86c-.78-16.1-4.15-34.43-20.57-40.64,6.6-7.38,13.02-15.27,18.33-23.47,22.32,2.34,37.62,14.97,44.12,21.34-5.65,13.65-20.41,34.8-41.88,42.77Zm5.76-25.5c1.04,3.04,1.86,6.35,2.45,9.86,10.3-6.98,17.25-17.26,21.28-24.72-4.8-3.8-14.54-10.39-27.04-12.89-2.46,3.48-5.08,6.92-7.83,10.28,4.82,4.04,8.91,10.63,11.14,17.48Z"/>
      <path class="cls-1" d="m39.89,150.42c-3.13,0-5.6-3.3-6.95-5.12-12.94-19.7-21.83-4.23-31.56-14.65-3.37-5.24-.16-13.39,4.86-16.9,10.09-6.16,22.21-.37,32.58,15.16,7.55,11.68,9.64,19.67,1.07,21.51Zm-23.57-26.19c2.1,0,4.06.25,5.89.69-3.65-3.37-10.77-5.65-12.04-.28,2.21-.07,4.06-.44,6.15-.41Z"/>
      <path class="cls-1" d="m13.83,156.42c-8.95.11-11-14.54-3.42-18.06,7.76-5.19,21.76-1.82,26.15.83,6.66,4.94,2.61,11.54-4.92,10.22-11.02-2.53-9.11,5.65-17.81,7.01Z"/>
      <path class="cls-1" d="m162.6,211.38c-24.75-.86-68.02-10.67-81.65-38.9-8.46,4.6-11.14-5.83-5.57-9.1-46.54-44.82,8.17-116.44,53.79-131.71-.1-.48-.17-.83-.22-1.09L123.87,0l14.44,27.43c.17.31.32.67.51,1.17,1.04-.29,2.09-.55,3.12-.8l46.07-11.09-42.74,20.46c-.76.36-1.52.74-2.28,1.13,22.91,51.75-6.67,92.92-51.24,126.85,22.77,21.85,62.88,34.87,97.76,40.53-4.33.84-22.64,6.2-26.92,5.71Zm-53.16-124.63c-25.92,2.89-32.26,38.84-24.42,67.97,33.32-31.2,49.13-63.38,24.42-67.97Zm-11.24-23.6c-21.64,20.1-39.49,51.62-25.81,79.37-1.37-21.25.8-33.06,8.35-47.75l-3.8,3.01c4.97-8.16,15.59-27.37,21.26-34.63Zm32.78,37.85c-.19,3.52-.95,7.68-2.66,12.48,1.58-2.48,3.01-4.96,4.29-7.44l-1.63-5.04Zm9.86-32.64c-1.01,10.75-5.16,25.76-7.79,36.81,6.15-12.22,8.72-24.44,7.79-36.81Zm-31.25-1.27c7.33-.06,15.08,3,20.2,8.08,1.53-8.47,2.2-17.29,1.25-29.81-8.92,6.07-16.67,13.31-23.31,21.79.62-.04,1.24-.06,1.86-.06Z"/>
      <path class="cls-3" d="m5.59,127.95c-1.57-2.44.13-7.72,3.52-10.1,15.37-8.9,33.98,25.11,30.96,27.4-2.05,1.48-8.56-17.36-25.6-15.95-2.73.23-7.3,1.1-8.88-1.35Z"/>
      <path class="cls-4" d="m13.43,151.38c-3.46-.84-3.73-7.33-.48-8.69,6.51-4.77,22.1-.01,21.85,1.66-.21,1.4-10.83-3.37-17.18,4-1.02,1.18-2.51,3.35-4.19,3.03Z"/>
      <path class="cls-3" d="m39.81,161.26c-3.24-2.09-4.59-7.77-2.64-11.6,19.06-22.92,50.62,38.51,60.09,52.71-18.21-16.62-26.45-36.09-49.02-40.59-4.18-.23-6.13.96-8.43-.53Z"/>
      <path class="cls-4" d="m66.44,114.08c1.63-20.77,18.11-45.19,33.82-59.74-6.91-19.29-18.92-31.41-22.5-34.85-44.99,29.39-44.28,102.01-4.74,131.77.66-.56,2.18-1.87,4.21-3.88-7.63-11.1-11.46-22.57-10.79-33.29Z"/>
      <g>
        <path class="cls-1" d="m132.94,104.17c-5.07-9.95-4.6-23.57-20.34-27.1-11.91-1.52-24.08,11.54-33.22,16.55,14.47-27.12,31.75-51.08,59.82-64.86,4.76,25.59,1.47,50.91-6.26,75.41Zm-19.06-37.02c6.07.78,11.56,3.66,15.88,8.12,1.64-9.79,2.09-19.82,1.34-29.96-8.91,6.06-16.67,13.29-23.31,21.74,1.95-.19,3.98-.18,6.09.09h0Z"/>
        <path class="cls-3" d="m84.01,164.71c38.89-28.75,81.42-71.65,52.4-128.56,2.11-1.19,4.34-2.36,6.71-3.49-2.19.53-4.67,1.21-7.39,2.09-.38-.78-1.47-4.29-1.84-4.99.14.82.97,4.42,1.09,5.23-45.75,13.84-103.67,83.42-52.2,128.5-7.47,6.54-7.44,6.72.73,1.54,9.69,35.39,74.48,43.19,83.31,41.03-35.8-7.44-64.53-23.15-82.83-41.35Zm31.17-113.07c4.57-4.26,11.18-9.68,20.06-14.82,2.66,23.29.74,35.23-3.18,51.3-5.11-15.8-24.72-20.84-37.17-10.96,4.68-7.93,11.07-16.91,20.29-25.52Zm-35.31,58.5c13.46-53.97,95.07-28.13,2.98,53.3-9.52-22.82-5.41-44.23-2.98-53.3Z"/>
      </g>
      <path class="cls-3" d="m84.09,158.1c8.82-19.92-4.24-34.05,7.59-51.16,6.81-9.58,24.11-7.84,21.21,5.99-1.4,5.9-7.07,8.69-13.73,16.05-4.77,5.27-10.71,16.27-15.07,29.12Z"/>
      <path class="cls-3" d="m127.89,207.27c10.9-15.84,13-63.69-11.91-73.67,14.93,22.06,18.73,44.95,11.91,73.67Z"/>
      <path class="cls-4" d="m167.07,135.25c-2.16,4.44-12.1,24.62-31.33,33.92-1.41-12.56-5.41-28.01-17.16-34.33,4.4-5.04,8.86-10.73,12.89-16.7,19.62,2.76,33.34,15.03,35.6,17.11Z"/>
    </g>
  </g>
  <g id="Text">
    <path class="cls-1" d="m185.01,188.76l2.12-11.32c14.66-7.06,18.56-9.4,21.35-24.35,0,0,15.68-65.68,15.68-65.68-2.84-2.6-11.4-4.74-16.14-6.6l1.49-11.1c24.14,1.67,37.24,1.48,55.48.93-2.36,22.94,4.86,33.31,11.04,64.42,7.31-14.3,32.21-49.29,34.35-64.27,2.94.15,6.2.34,9.27.35l2.31-3.88-.59,3.89c12.02.11,25.63-.47,38.21-1.37l-2.27,12.16c-7.87,2.33-10.51-.66-12.83,11.83-2.53,12.04-14.25,72.88-14.37,80.17,3.55,4.89,659.45.03,664.03,1.69v12.78c-33.32.68-696.48-1.16-714.24.28l1.52-12.04c9.28-1.85,11.72-1.7,13.37-11.73,1.71-7.46,6.53-34.94,8.82-47.27l-42.08,70.72h-9.84c-5.75-23.82-12.95-54.56-18.11-75.05-4.12,22.34-7.68,37.49-9.08,52.31-1.46,2.74,6.67,7.98,14.92,12.68l-1.97,10.36c-16.39-1.4-35.7-1.13-52.41.08Zm124.77-11.02c3.84,0,7.42.05,11.1.15-2.64-8.07,5.79-41.26,6.89-50.58,3.76-17.35,5.46-35.06,10.4-46.38-6.4.21-12.35.26-18.33.21-2.47,17.39-6.19,37.07-9.57,55.66-4.72,23.31-3.93,28.17-9.29,41.02,2.87-.05,5.79-.08,8.81-.08Zm-96.75,0c2.52,0,4.94.02,7.27.07-3.42-2.88-5.33-5.88-5.74-10.29-1.91,4.44-4.29,7.49-7.87,10.26,2.05-.03,4.15-.05,6.33-.05Zm21.09-96.86c10.06,27.24,15.6,58.49,24.35,93.03l11.98-20.13c-7.66-31.46-13.97-53.39-16.35-72.83-7.34.05-10.34.09-19.98-.07Z"/>
    <g>
      <g>
        <path class="cls-1" d="m800.5,182.28c-35.5-.62-56.98-2.01-87.35-.01l2.96-11.83c6.03-1.95,9.25.67,10.95-8.59,2.43-11.25,13.17-65.31,13.08-71.2-1.06-.43-7.49-1.94-8.81-2.29l2.08-11.11c18.25.91,34.65.82,52.63-.06l-1.43,11.48c-5.99,2.05-9.82-.14-11.07,8.91-4.53,21.47-12.21,61.07-13.11,70.42,18.04,1.15,22.63-4,40.59-31.45h11.78c-4.3,14.98-10.18,33.54-12.29,45.73Zm-14.95-10.34c2.3.05,4.59.1,6.85.15.66-2.8,1.47-5.92,2.38-9.25-3.13,3.79-6.14,6.79-9.23,9.09Zm-35.75-84.13c1.24,8.05-3.69,27.39-6.24,42.04-3.39,16.18-5.12,31.48-9.14,41.43,6-.14,9.75-.09,16.33-.01-1.23-7.28,3.92-27.98,6.65-44.33,1.56-5.92,4.73-28.62,8.73-39.08-5.23.12-10.52.1-16.33-.06Z"/>
        <path class="cls-3" d="m741.33,176.2c-6.76,0-13.94.28-21.69.7l.56-2.25c7.01-1.38,9.55-2.06,11.69-11.55,1.13-4.37,4.65-23.1,6.76-34.23,2.53-12.68,6.48-33.38,6.48-38.03.52-4.42-3.88-5.22-8.03-6.2l.42-2.25c15.85.71,27.32.71,42.82,0l-.28,2.25c-7.28,1.5-9.89,3.36-11.41,11.83-2.11,10-4.93,24.23-6.34,31.41-2.53,13.24-6.9,36.76-6.9,40.28,0,3.8,1.41,4.93,7.32,4.93,18.66-.14,23-4.63,40.99-31.55h2.39c-3.94,13.52-8.03,27.04-9.72,35.64-18.31-.42-43.66-.99-55.07-.99Z"/>
      </g>
      <g>
        <path class="cls-1" d="m829.39,183.6c-51.61-5.4-14.31-105.11,41.39-78.93l9.33-3.19h8.97l-9.34,49.86.46-.97,9.71,3.53c-1.36,16.33-10.76,29.39-25.73,28.85-7.25,0-12.47-2.92-14.99-8.11-5.37,5.81-12.17,8.96-19.8,8.96Zm4.89-67.47c-17.62,7.61-32.83,63.99.82,56.42-19.79-3.85-8.85-42.2-.82-56.42Zm21.55,37.95l3.91.78c-3.81,12.07-4.17,22.67,11.81,16.01-5.92-2.89-3.72-9.36-2.55-16.49,0,0,7.71-41.16,7.71-41.16l-7.17,2.45c-2.04-1.39-4.09-2.73-6.6-3.46.38.76.86,1.96,1.2,2.77l-7.3,36.79c-.33.77-.67,1.57-1.01,2.31Zm-4.77-40.06c-8.29-.94-20.79,33.09-15.71,47.96,2.39,2.18,6.95-2.62,11.89-13.18,0,0,6.48-32.67,6.48-32.67-1.11-2.1-1.96-2.1-2.67-2.1Z"/>
        <path class="cls-3" d="m884.32,157.19c-1.26,24.64-38.87,29.9-30.71,1.55l-.7-.14c-4.79,13.1-13.38,20-23.52,20-42.44-4.04-9.72-94.75,40.85-68.45,1.51-.41,11.4-4.35,12.82-3.66-.96,6.26-10.35,52.73-10.42,57.75.79,5.51,6.91-.05,10.14-7.61l1.55.56Zm-25.38-41.69c-15.28-30.39-43.62,49.17-22.54,52.12,16.19-.87,19.6-39.43,22.54-52.12Z"/>
      </g>
      <g>
        <path class="cls-1" d="m890.34,184.02h-9.09c.93-5.04,18.74-91.94,18.96-94.79l-7.42-2.47,1.72-9.45c16.02-1.7,25.45-3.59,34.22-6.89l6.98,3.1c-3.47,12.05-5.25,21.75-7.32,31.67,64.14-27.4,41.36,105.43-29.51,74.1l-8.54,4.73Zm43.07-70.09c11.71,13.01,2.54,44.85-8.01,58.95,31.86-.39,45.82-76.94,8.01-58.95Zm-24.49,54.88c9.75,10.18,24.61-33.25,18.35-46.91-.23-.02-.55,0-.82.08-1.73,2.75-3.4,7-4.7,10.14l-3.63-1.21c-2.88,2.34-8.12,34.12-9.19,37.89Zm1.24-83.45c1.07,8.07-14.68,75.36-15.98,85.09l2.72-1.51h1.77c.18-.44,7.24-36,7.57-36.35,2.44-5.9,5.31-10.67,8.44-14.14,3.23-9.86,5.43-23.87,8.26-35.71-3.55.98-7.35,1.79-12.79,2.62Z"/>
        <path class="cls-3" d="m961.02,129.16c2.69,30.76-29.92,62.07-61.41,44.79-2.43-.65-9.78,5.91-12.25,5.07,1.27-7.57,18.01-86.34,18.03-91.7.79-2.06-4.94-3.16-6.9-3.94l.28-1.55c16.62-1.97,21.41-3.24,29.72-6.06l1.27.56c-4.58,16.78-7.18,36.29-12.11,49.16l1.27.42c10.88-28.9,42.53-25.73,42.11,3.24Zm-27.33.85c.02-22.78-16.82-12.34-22.82,4.51,0,0-7.18,34.93-7.18,34.93,14.28,22.29,31.09-20.51,30-39.44Z"/>
      </g>
      <g>
        <path class="cls-1" d="m968.24,182.75c-22.74.03-18.4-34.82,2.11-33.94,22.69-.05,18.51,34.97-2.11,33.94Zm2.11-23.95c-7.45-1.02-11.43,14.01-2.11,13.95,8.49.57,10.84-14.05,2.11-13.95Z"/>
        <path class="cls-3" d="m957.82,167.33c-1.26-15.1,22.84-19.09,22.96-3.1,1.3,15.25-22.64,19.24-22.96,3.1Z"/>
      </g>
    </g>
    <g>
      <path class="cls-1" d="m656.87,171.91c-26.53-2.02-5.65-71.34,14.65-68.59,6.11-.2,10.76,4.35,13.09,10.96-4.1,17.21-6,55.8-27.74,57.64Zm14.65-58.59c-8.29-.94-20.79,33.09-15.71,47.96,2.39,2.18,6.95-2.62,11.89-13.18,0,0,6.48-32.68,6.48-32.68-1.11-2.1-1.96-2.1-2.67-2.1Z"/>
      <path class="cls-1" d="m459.92,171.91c-26.52-2.02-5.65-71.34,14.65-68.59,6.11-.2,10.76,4.35,13.09,10.96-4.1,17.22-6,55.8-27.74,57.64Zm14.65-58.59c-8.29-.94-20.79,33.09-15.71,47.96,2.39,2.18,6.95-2.62,11.89-13.18,0,0,6.48-32.68,6.48-32.68-1.11-2.1-1.96-2.1-2.67-2.1Z"/>
      <g>
        <path class="cls-1" d="m359.53,182.05c-20.41-.96-18.99-15.97-14.48-34.18,1.45-7.58,4.46-21.9,5.86-29.54-.25-.11-7.49-2.61-7.77-2.71l2.36-9.45c16.55-1.94,24.79-3.07,33.4-6.35l6.44,3.22c-3.43,16.21-6.31,31.4-9.64,46.94l.09-.18,10.1,3.37c-2.15,16.14-11.95,29.49-26.38,28.9Zm1.31-67.75c1.2,5.64-4.85,27.26-6,35.61-3.93,16.07-5.64,27.46,12.26,20-6.19-2.89-3.18-10.91-2.19-17.12,2.41-11.35,6.12-29.52,8.34-40.74-3.42.88-6.96,1.51-12.42,2.26Z"/>
        <path class="cls-3" d="m349.96,148.88c-1.97,9.3-2.82,13.94-2.82,16.76,0,7.04,3.38,11.41,12.4,11.41,11.55,0,18.03-8.59,20.56-20.56l-1.69-.56c-3.72,7.92-8.87,12.75-10.14,7.47,0-1.69.71-4.93,1.55-9.58,3.3-15.44,6.54-32.02,9.86-48.03l-1.13-.56c-8.31,2.82-11.83,3.38-29.02,5.49l-.42,1.69c2.02.8,7.64,2.14,7.04,4.08-.59,6.26-4.9,24.94-6.2,32.4Z"/>
      </g>
      <g>
        <path class="cls-1" d="m401.21,182.9c-33.97-.73-13.78-40.35-11.39-61.59l-7.27-1.76,1.47-8.79c13.03-6.44,22.54-11.27,34.69-19.77l7.49,3.74-2.34,10.98h14.78l-3.8,18.03h-14.61c-1.87,9.46-5.78,28.1-7.29,37.49,3.07-1.11,7.02-7.44,9.11-11.44l9.75,3.55c-3.04,17.23-14.02,30.07-30.6,29.57Zm-6.23-37.78c-3.16,15.9-9.61,33.14,13.82,26.44-10.21-4.53-5.33-10.08-3.06-26.44,0,0,5.91-29.41,5.91-29.41h-.14l1.99-9.37c-4.99,3.06-9.53,5.52-14.54,8.09,2.52,3.79,1.43,3.47.38,10.22,0,0-4.38,20.47-4.38,20.47Zm17.72,18.35h0Z"/>
        <path class="cls-3" d="m390.09,144.09c-1.83,8.87-3.52,17.33-3.52,20.99.68,21.83,36.1,14.6,39.3-8.59l-1.55-.56c-4.13,8.28-15.35,15.76-16.62,7.33.43-6.17,6.82-35.88,8.45-44.51h14.65l1.69-8.03h-14.79l2.82-13.24-1.41-.7c-11.41,7.75-18.73,11.41-30.56,17.33l-.28,1.69c1.33.5,7.48,1.25,7.18,2.54-.26,2.65-4.69,22.42-5.35,25.78Z"/>
      </g>
      <g>
        <path class="cls-1" d="m451.05,182.9c-51.61-5.4-14.31-105.11,41.4-78.93l9.33-3.19h8.97l-9.34,49.86.46-.97,9.71,3.53c-1.36,16.33-10.77,29.39-25.73,28.85-7.25,0-12.47-2.92-14.99-8.11-5.37,5.81-12.17,8.96-19.8,8.96Zm7.75-69.06c-20.16,5.81-36.63,66.7-1.55,57.82-18.12-5.84-7.12-44.06,1.55-57.82Zm20.39,39.88l2.21.44c-3.81,12.07-4.17,22.67,11.81,16.01-5.92-2.88-3.72-9.36-2.56-16.49,0,0,7.71-41.16,7.71-41.16l-7.17,2.45c-1.29-.84-2.92-1.99-4.34-2.6.16.36.64,1.53.8,1.91-.31.74-7.53,40.47-8.47,39.44Zm-4.62-40.4c-8.29-.94-20.79,33.09-15.71,47.96,2.39,2.18,6.95-2.62,11.89-13.18,0,0,6.48-32.68,6.48-32.68-1.11-2.1-1.96-2.1-2.67-2.1Z"/>
        <path class="cls-3" d="m451.05,177.9c10.14,0,18.73-6.9,23.52-20l.7.14c-8.17,28.37,29.46,23.08,30.71-1.55l-1.55-.56c-3.23,7.57-9.35,13.11-10.14,7.61.02-4.77,9.52-51.8,10.42-57.75-1.37-.69-11.37,3.27-12.82,3.66-50.6-26.29-83.26,64.43-40.85,68.45Zm23.52-69.58c3.1,0,5.77,1.41,7.89,6.48l-6.9,34.79c-6.5,17.45-22.77,26.61-22.82,3.8,0-17.89,9.44-45.07,21.83-45.07Z"/>
      </g>
      <g>
        <path class="cls-1" d="m603.58,182.05c-31.41-1.43-10.41-39.72-10.42-59.33-6.99,3.25-10.66,13.3-11.43,22.85,0,0-6.53,35.35-6.53,35.35h-30.31c2.33-13.26,8.7-45.34,10.32-58.08-2.15,1.14-5.73,4.22-9.45,9.79l-9.48,48.29h-30.85c1.73-9.63,10.07-51.95,11.05-60.28-1.93.19-5.51,1.08-7.51,1.5l-3.44-8.59c9.08-10.18,34.15-18.91,41.03-4.43,8.27-11.16,31.34-12.63,37.1,1.38,10.63-15.74,40.96-13.34,40.42,8.93.05,6.34-2.83,20.61-4.72,30.32l10.1,3.37c-1.8,19.93-15.31,30.12-25.88,28.92Zm-3.53-39.48c-1.39,12.51-12.12,36.98,10.93,27.56-8.39-3.13-.53-22.04-.33-28,1.68-8.9,3.42-18.1,3.42-22.69.55-9.21-11.09-11.58-17.94-6.98,12.75,3.85,5.08,17.89,3.92,30.1Zm-43.14,28.36h9.97c2.15-11.3,6.35-34.59,8.1-45.83,3.35-12.31-6.16-18.82-17.05-12.69,12.64,3.74,5.92,14.29,4.61,27.8-.23,1.45-5.22,28.44-5.64,30.72Zm-39.41,0h10.56l8.05-41.01-1.86-.53c2.53-11.13,9.21-22.12-9.13-16.5,5.23,5.16-6.76,47.89-7.62,58.05Z"/>
        <path class="cls-3" d="m511.46,175.93h20.71l8.87-45.21c5.28-8.43,16.72-19.43,19.3-9.72-.86,11.71-7.3,42.06-9.44,54.93h20.14l5.78-31.27c.62-11.84,7.39-26.26,17.61-27.33,8.16-.45.67,19.96.7,24.37-1.13,7.04-3.94,19.44-3.94,23.94,0,6.48,3.66,11.41,12.39,11.41,11.13,0,17.61-7.32,20.14-20.56l-1.69-.56c-3.1,7.51-8.94,12.96-10,7.75.23-6.26,7.39-37.06,7.04-44.23,0-7.89-5.07-14.23-15.07-14.23s-17.18,6.9-24.09,20.71c5.04-29.22-28.96-26.17-38.59.28l-.99-.28c9.99-24.69-14.54-22.98-28.88-10.99l.56,1.41c3.07-.4,9.6-2.51,9.72,1.27-.3,8.61-8.51,47.76-10.28,58.31Z"/>
      </g>
      <g>
        <path class="cls-1" d="m648,182.9c-51.61-5.4-14.31-105.11,41.4-78.93l9.33-3.19h8.97l-9.34,49.86.46-.97,9.71,3.53c-1.36,16.33-10.77,29.39-25.73,28.85-7.25,0-12.47-2.92-14.99-8.11-5.37,5.81-12.17,8.96-19.8,8.96Zm7.75-69.06c-20.15,5.81-36.62,66.7-1.55,57.82-18.12-5.84-7.12-44.06,1.55-57.82Zm20.39,39.88l2.21.44c-3.81,12.07-4.17,22.67,11.81,16.01-5.92-2.88-3.72-9.36-2.56-16.49,0,0,7.71-41.16,7.71-41.16l-7.17,2.45c-1.29-.84-2.92-1.99-4.34-2.6.16.36.64,1.53.8,1.91-.31.74-7.53,40.47-8.47,39.44Zm-4.62-40.4c-8.29-.94-20.79,33.09-15.71,47.96,2.39,2.18,6.95-2.62,11.89-13.18,0,0,6.48-32.68,6.48-32.68-1.11-2.1-1.96-2.1-2.67-2.1Z"/>
        <path class="cls-3" d="m648,177.9c10.14,0,18.73-6.9,23.52-20l.7.14c-8.17,28.37,29.46,23.08,30.71-1.55l-1.55-.56c-3.23,7.57-9.35,13.11-10.14,7.61.02-4.77,9.52-51.8,10.42-57.75-1.37-.69-11.37,3.27-12.82,3.66-50.6-26.29-83.26,64.43-40.85,68.45Zm23.52-69.58c3.1,0,5.77,1.41,7.89,6.48l-6.9,34.79c-6.5,17.45-22.77,26.61-22.82,3.8,0-17.89,9.44-45.07,21.83-45.07Z"/>
      </g>
      <g>
        <path class="cls-1" d="m370.01,101.76c-19.77.3-17.64-30.83,2.24-30.4,19.62-.19,17.87,30.78-2.24,30.4Zm2.24-20.4c-7.62-.16-8.15,10.98-2.24,10.4,7.77.1,7.88-11.24,2.24-10.4Z"/>
        <path class="cls-3" d="m370.01,96.76c12.83.49,16.07-20.1,2.24-20.4-13.09-.52-15.79,20.44-2.24,20.4Z"/>
      </g>
      <path class="cls-3" d="m989.13,180.64v2.78H333.02c-17.16-.93-30-.91-47.43-.04l.32-2.58c10.64-2.26,11.12-4.2,13.71-14.68,3.29-15.99,10.28-54.62,13.54-74.33l-54.5,91.59h-3.06c-9.42-37.95-15.06-66.41-22.9-91.59-4.95,26.26-11.52,55.37-13.22,73.85,0,6.45,3.71,8.71,14.36,15.16l-.49,2.58c-14.54-.93-27.36-.83-42.24,0l.48-2.58c15.48-7.74,18.06-10.32,21.77-26.61l16.28-68.21c-3.71-4.84-8.38-5.81-16.12-8.54l.32-2.42c18.56,1.14,30.88,1.1,45.47.81.5,23.22,7.75,39.88,14.84,72.24,7.11-13.76,36.89-58.28,40.14-72.08,12.4.41,25.2.05,39.18-.81l-.48,2.59c-8.75,1.68-11.02,3.44-13.38,14.83-3.02,15.16-13.29,66.63-14.51,81.27.15,4.76,4.79,5.57,8.15,6.58,1.3.74,654.44-.14,655.88.19Z"/>
    </g>
    <g>
      <path class="cls-1" d="m370.32,104.14c-23.48.2-22.03-35.53,3.41-36,1.84-21.24,37.29-5.62,18.11,2.06,1.09,4.1-.49,8.98-3.33,11.44,1.53,11.52-5.1,21.38-18.19,22.5Zm8.98-26.75c-2.65.83-7.97.85-9.99,1.55-4.74,2.46-6.97,7.24-5.27,11.99,2.34,4.67,10.37,3.45,12.25.28h0c4.55-4.76.83-7.98,3.01-13.83Z"/>
      <path class="cls-2" d="m380.05,94.5c7.62-8.86-.04-12.11,6.15-17.85,3.76-4.87-4.95-10.41,2.19-10.87,7.52-.77,2.43-2.9-3.41-3.28-6.98-.45-5.62,6.84-6.79,9.77-.98,1.09-8.69,1.07-10.19,1.85-5.4,1.45-8.08,7.72-8.27,8.16-6.79,13.59,11.76,22.83,20.31,12.22Z"/>
    </g>
    <rect class="cls-1" x="375.14" y="167.47" width="10.07" height="10.12" transform="translate(94.61 477.09) rotate(-71.25)"/>
    <rect class="cls-1" x="425.13" y="165.48" width="5" height="17" transform="translate(214.79 583.66) rotate(-84.69)"/>
    <rect class="cls-1" x="425.13" y="165.48" width="7" height="7"/>
    <rect class="cls-1" x="467.13" y="172.48" width="8" height="4"/>
    <rect class="cls-1" x="500.13" y="169.48" width="11" height="5" transform="translate(180.27 595.51) rotate(-71.25)"/>
    <rect class="cls-1" x="620.91" y="166.67" width="9.62" height="12" transform="translate(188.81 652.72) rotate(-63.12)"/>
    <rect class="cls-1" x="666.13" y="172.48" width="4" height="4"/>
    <rect class="cls-1" x="796.17" y="165.75" width="15.82" height="4.91" transform="translate(481.75 923.81) rotate(-78.71)"/>
    <rect class="cls-1" x="803.76" y="165.92" width="6.51" height="12" transform="translate(49.8 499.73) rotate(-35.43)"/>
    <rect class="cls-1" x="847.13" y="173.48" width="4" height="4"/>
    <rect class="cls-1" x="881.13" y="173.48" width="4" height="4"/>
    <rect class="cls-1" x="942.78" y="168.59" width="12" height="7.81" transform="translate(75.72 582.03) rotate(-35.43)"/>
    <rect class="cls-1" x="950.13" y="172.48" width="8" height="4"/>
    <rect class="cls-1" x="90.13" y="130.48" width="26" height="6" transform="translate(-65.55 132.33) rotate(-51.92)"/>
    <rect class="cls-1" x="81.52" y="93.1" width="27" height="6.49" transform="translate(-40.3 95.41) rotate(-45)"/>
    <rect class="cls-1" x="115.13" y="89.48" width="6" height="21"/>
    <rect class="cls-1" x="104.13" y="83.48" width="13" height="19" transform="translate(-3.61 181.5) rotate(-77.82)"/>
    <rect class="cls-1" x="118.13" y="110.48" width="1" height="6"/>
  </g>
</svg>