<?xml version="1.0" encoding="UTF-8"?>
<svg xmlns="http://www.w3.org/2000/svg" xmlns:xlink="http://www.w3.org/1999/xlink" viewBox="0 0 994.23 171.92">
  <defs>
    <style>
      .cls-1 {
        fill: url(#_名称未設定グラデーション_37);
        stroke: #fff;
      }

      .cls-1, .cls-2, .cls-3 {
        stroke-miterlimit: 10;
      }

      .cls-4 {
        fill: none;
      }

      .cls-2 {
        stroke: #336;
      }

      .cls-2, .cls-5 {
        fill: #336;
      }

      .cls-3 {
        fill: #6ec3ce;
        stroke: #6ec3ce;
      }
    </style>
    <radialGradient id="_名称未設定グラデーション_37" data-name="名称未設定グラデーション 37" cx="353.97" cy="54.01" fx="353.97" fy="60.4" r="18.36" gradientUnits="userSpaceOnUse">
      <stop offset="0" stop-color="#fff"/>
      <stop offset="0" stop-color="#fbfdfd"/>
      <stop offset=".11" stop-color="#afdee4"/>
      <stop offset=".19" stop-color="#80cad4"/>
      <stop offset=".23" stop-color="#6ec3ce"/>
      <stop offset=".99" stop-color="#7c7c9d" stop-opacity=".68"/>
    </radialGradient>
  </defs>
  <g id="Butterfly">
    <g>
      <path class="cls-2" d="m1.03,98.14c-1.41-2.2.12-6.94,3.17-9.08,13.82-8,30.54,22.57,27.82,24.63-1.84,1.33-7.69-15.6-23.01-14.34-2.45.2-6.56.99-7.98-1.21Z"/>
      <path class="cls-3" d="m8.07,119.2c-3.11-.75-3.35-6.58-.43-7.81,5.85-4.28,19.86-.01,19.64,1.5-.19,1.26-9.74-3.03-15.44,3.6-.91,1.06-2.26,3.01-3.77,2.72Z"/>
      <path class="cls-2" d="m31.79,128.08c-2.92-1.87-4.12-6.99-2.37-10.42,0,0,1.85-3.62,8.05-4.74,13.75-2.48,39.17,40.38,45.95,52.11-6.55-6.73-11.7-12.3-15.16-16.11-6.94-7.64-10.76-12.22-17.53-16.11-3.98-2.28-7.01-4.02-11.37-4.26-3.76-.21-5.51.86-7.58-.47Z"/>
      <path class="cls-3" d="m55.72,85.67c1-16.15,13.69-36.31,25.28-48.64,1.71-1.82,3.43-3.5,5.12-5.05C79.91,14.63,69.11,3.74,65.9.65c-3.49,2.5-28.98,21.45-31.27,55.9-2.46,37.17,24.23,60.22,27,62.53.6-.5,1.96-1.68,3.78-3.49-6.86-9.97-10.3-20.29-9.7-29.92Z"/>
      <g>
        <path class="cls-4" d="m97.79,47.95c8.6,1.11,14.31,7.67,16.92,14.39.77-2.89,1.23-4.97,1.38-5.67,2.07-9.61,3.76-23.45,1.48-40.43-7.99,4.62-13.93,9.49-18.03,13.32-8.29,7.74-14.03,15.81-18.24,22.94,3.73-2.51,9.67-5.42,16.49-4.54Z"/>
        <path class="cls-4" d="m87.87,112.62c3.02-3.31,4.54-4.95,5.89-6.63,6.9-8.57,11.5-17.38,14.65-24.92,1.32-5.19,2.34-12.38-1.79-18.31-1.07-1.54-4.78-4.94-9.48-5.89-1.35-.27-4.52-1.49-10.98,1.47-7.53,3.45-11.68,9.09-14.01,11.98-1.78,3.86-3.15,7.3-4.36,11.8-2.19,8.15-5.89,27.39,2.68,47.91,3.9-3.55,9.9-9.22,17.4-17.42Z"/>
        <path class="cls-5" d="m71.51,131.18c34.95-25.84,73.19-64.4,47.1-115.55,1.9-1.07,3.9-2.12,6.03-3.13-1.97.47-4.2,1.08-6.64,1.88-.35-.7-1.32-3.86-1.65-4.48.12.74.88,3.97.98,4.7-41.12,12.44-93.18,74.98-46.91,115.5-6.71,5.87-6.69,6.04.66,1.39,8.71,31.81,66.94,38.82,74.88,36.88-32.18-6.69-58-20.81-74.45-37.17Zm28.02-101.63c4.1-3.83,10.05-8.7,18.03-13.32,2.39,20.93.67,31.67-2.86,46.11-4.6-14.2-22.22-18.73-33.41-9.85,4.2-7.13,9.95-15.2,18.24-22.94Zm-31.74,52.58c12.1-48.51,85.45-25.28,2.68,47.91-8.56-20.51-4.86-39.75-2.68-47.91Z"/>
      </g>
      <path class="cls-2" d="m71.58,125.24c7.93-17.91-3.81-30.6,6.82-45.98,6.12-8.61,21.67-7.05,19.06,5.38-1.25,5.31-6.35,7.81-12.34,14.42-4.28,4.73-9.63,14.62-13.54,26.17Z"/>
      <path class="cls-2" d="m110.95,169.43c9.8-14.23,11.69-57.24-10.71-66.22,13.42,19.83,16.84,40.4,10.71,66.22Z"/>
      <path class="cls-3" d="m146.17,104.7c-1.94,3.99-10.87,22.13-28.16,30.48-.13-1.73-.38-3.2-.86-5.34-.49-3.23-1.22-6.37-2.23-9.31-.22-.75-.48-1.44-.77-2.07-2.45-6.12-6.22-11.19-11.57-14.14,3.74-4.29,7.44-8.98,10.94-14.06.22-.32.43-.63.64-.95,17.64,2.48,29.97,13.51,32,15.38Z"/>
    </g>
  </g>
  <g id="Text">
    <g>
      <path class="cls-5" d="m736.5,151.08c-7.03,0-14.5.29-22.56.73l.59-2.34,2.64-.59c6.01-1.32,7.32-2.93,9.52-11.43,1.17-4.54,4.83-24.03,7.03-35.6,2.64-13.19,6.74-34.72,6.74-39.55,0-3.81-1.46-4.69-6.01-5.86l-2.34-.59.44-2.34c8.2.29,15.53.59,22.27.59,7.32,0,14.21-.29,22.27-.59l-.29,2.34-2.34.59c-6.74,1.76-7.76,3.96-9.52,11.72-2.2,10.4-5.13,25.2-6.59,32.67-2.64,13.77-7.18,38.24-7.18,41.9,0,3.96,1.46,5.13,7.62,5.13,3.37,0,4.98-.15,6.45-.29,12.74-.73,20.36-8.06,36.18-32.52h2.49c-4.1,14.06-8.35,28.13-10.11,37.06-19.04-.44-45.41-1.03-57.28-1.03Z"/>
      <path class="cls-5" d="m885.22,131.3c-2.05,12.89-8.94,21.39-20.95,21.39-8.64,0-12.16-4.54-12.16-11.72,0-2.34.44-5.13,1.17-8.06l-.73-.15c-4.98,13.62-13.92,20.8-24.46,20.8-12.45,0-19.78-9.52-19.78-23.88,0-26.08,15.24-51.71,44.83-51.71,6.74,0,12.75,1.32,17.43,4.39l11.13-3.81h2.2l-9.52,50.83c-.88,4.39-1.32,7.76-1.32,9.23,0,1.61.44,2.2,1.46,2.2,2.49,0,5.42-2.34,9.08-10.11l1.61.59Zm-26.39-43.36c-2.2-5.27-4.98-6.74-8.2-6.74-12.89,0-22.71,28.27-22.71,46.88,0,9.52,2.2,14.06,7.47,14.06s11.57-7.03,16.26-18.02l7.18-36.18Z"/>
      <path class="cls-5" d="m964.99,102.15c0,25.34-14.5,51.42-45.27,51.42-7.18,0-13.62-1.76-18.6-4.83h-1.47l-9.52,5.27h-1.76l16.85-83.5c1.03-4.98,1.9-9.67,1.9-11.87,0-1.47-.44-1.9-3.66-2.93l-3.52-1.17.29-1.61c17.29-2.05,22.27-3.37,30.91-6.3l1.32.59c-2.05,7.47-3.81,15.53-4.54,19.48l-1.76,8.5c-2.34,11.28-4.39,17.58-6.3,23.15l1.32.44c6.45-15.53,16.11-20.8,23.73-20.8,13.19,0,20.07,8.79,20.07,24.17Zm-28.43.88c0-8.79-2.05-13.62-6.89-13.62-6.01,0-12.31,7.32-16.85,18.31l-7.47,36.33c1.9,4.54,4.39,6.45,7.76,6.45,13.62,0,23.44-28.42,23.44-47.46Z"/>
      <path class="cls-5" d="m961.66,141.85c0-8.06,5.57-14.06,13.04-14.06,6.59,0,10.84,4.4,10.84,10.84,0,8.2-5.13,14.06-13.04,14.06-6.59,0-10.84-4.4-10.84-10.84Z"/>
    </g>
    <g>
      <path class="cls-4" d="m443.82,141.41c5.42,0,11.57-7.03,16.26-18.02l7.18-36.18c-2.2-5.27-4.98-6.74-8.2-6.74-12.89,0-22.71,28.27-22.71,46.88,0,9.52,2.2,14.06,7.47,14.06Z"/>
      <path class="cls-4" d="m648.65,141.41c5.42,0,11.57-7.03,16.26-18.02l7.18-36.18c-2.2-5.27-4.98-6.74-8.2-6.74-12.89,0-22.71,28.27-22.71,46.88,0,9.52,2.2,14.06,7.47,14.06Z"/>
      <path class="cls-5" d="m329.44,122.66c-2.05,9.67-2.93,14.5-2.93,17.43,0,7.33,3.52,11.87,12.89,11.87,12.01,0,18.75-8.94,21.39-21.39l-1.76-.59c-3.81,7.91-6.74,9.96-8.94,9.96-1.03,0-1.61-.73-1.61-2.2,0-1.76.73-5.13,1.61-9.96l4.98-23.88c1.9-9.52,2.93-14.94,5.27-26.08l-1.17-.59c-8.64,2.93-12.31,3.52-30.18,5.71l-.44,1.76,3.37,1.17c3.08,1.17,3.96,1.61,3.96,3.08,0,2.05-1.61,9.67-2.64,14.5l-3.81,19.19Z"/>
      <path class="cls-5" d="m371.18,117.68c-1.9,9.23-3.66,18.02-3.66,21.83,0,9.96,6.59,13.33,15.24,13.33,13.04,0,21.97-7.76,25.64-22.27l-1.61-.59c-4.69,8.2-9.67,11.28-14.06,11.28-2.49,0-3.22-1.61-3.22-3.66,0-1.76,1.47-9.52,3.08-17.87l5.71-28.42h15.24l1.76-8.35h-15.38l2.93-13.77-1.47-.73c-11.87,8.06-19.48,11.87-31.79,18.02l-.29,1.76,4.25,1.03c2.49.59,3.22.88,3.22,1.61,0,.44-.44,2.64-1.03,5.57l-4.54,21.24Z"/>
      <path class="cls-5" d="m434.59,152.84c10.55,0,19.48-7.18,24.46-20.8l.73.15c-.73,2.93-1.17,5.71-1.17,8.06,0,7.18,3.52,11.72,12.16,11.72,12.01,0,18.9-8.5,20.95-21.39l-1.61-.59c-3.66,7.76-6.59,10.11-9.08,10.11-1.03,0-1.47-.59-1.47-2.2,0-1.47.44-4.83,1.32-9.23l9.52-50.83h-2.2l-11.13,3.81c-4.69-3.08-10.69-4.39-17.43-4.39-29.59,0-44.83,25.64-44.83,51.71,0,14.36,7.32,23.88,19.78,23.88Zm24.46-72.37c3.22,0,6.01,1.47,8.2,6.74l-7.18,36.18c-4.69,10.99-10.84,18.02-16.26,18.02s-7.47-4.54-7.47-14.06c0-18.61,9.82-46.88,22.71-46.88Z"/>
      <path class="cls-5" d="m497.42,150.79h21.53l9.23-47.03c5.27-8.2,11.72-13.92,16.26-13.92,2.78,0,3.81,1.76,3.81,3.81,0,3.96-2.34,16.26-3.52,23l-6.3,34.13h20.95l6.01-32.52c.88-4.69,1.76-9.67,2.49-14.21,4.98-8.35,10.99-14.21,15.82-14.21,2.93,0,3.96,1.76,3.96,4.1,0,4.69-2.34,16.7-3.22,21.24-1.17,7.32-4.1,20.22-4.1,24.9,0,6.74,3.81,11.87,12.89,11.87,11.57,0,18.31-7.62,20.95-21.39l-1.76-.59c-3.37,7.62-6.59,10.11-8.79,10.11-.88,0-1.61-.44-1.61-2.05,0-1.76,1.32-9.67,3.37-19.78,1.91-10.11,3.96-20.66,3.96-26.22,0-8.2-5.27-14.8-15.68-14.8s-17.87,7.18-25.05,21.53c.44-2.64.59-4.98.59-6.74,0-8.2-4.69-14.8-15.38-14.8s-18.02,7.18-25.34,21.83l-1.03-.29c1.17-4.39,2.34-8.35,2.34-12.01,0-5.27-3.81-8.2-10.55-8.2s-15.82,3.37-21.83,8.79l.59,1.47c2.64-.59,4.98-.88,7.03-.88,2.64,0,3.08.73,3.08,2.2,0,2.78-1.17,9.96-2.78,18.75l-7.91,41.9Z"/>
      <path class="cls-5" d="m639.43,152.84c10.55,0,19.48-7.18,24.46-20.8l.73.15c-.73,2.93-1.17,5.71-1.17,8.06,0,7.18,3.52,11.72,12.16,11.72,12.01,0,18.9-8.5,20.95-21.39l-1.61-.59c-3.66,7.76-6.59,10.11-9.08,10.11-1.03,0-1.47-.59-1.47-2.2,0-1.47.44-4.83,1.32-9.23l9.52-50.83h-2.2l-11.13,3.81c-4.69-3.08-10.69-4.39-17.43-4.39-29.59,0-44.83,25.64-44.83,51.71,0,14.36,7.32,23.88,19.78,23.88Zm24.46-72.37c3.22,0,6.01,1.47,8.2,6.74l-7.18,36.18c-4.69,10.99-10.84,18.02-16.26,18.02s-7.47-4.54-7.47-14.06c0-18.61,9.82-46.88,22.71-46.88Z"/>
      <path class="cls-5" d="m350.3,68.45c7.48,0,11.65-5.89,11.65-11.77,0-5.03-2.94-9.44-9.32-9.44-7.48,0-11.65,5.89-11.65,11.65s3.19,9.57,9.32,9.57Z"/>
      <path class="cls-5" d="m994.23,155.69v2.89H311.83c-9.05-.5-15.96-.7-24.17-.7s-15.93.16-25.16.67l.34-2.68c11.06-2.35,11.57-4.37,14.26-15.27,1-3.86,5.2-27.33,7.37-39.24,1.85-10.23,5.2-28.17,6.71-38.07l-56.68,95.26h-3.18c-8.22-34.21-15.77-66.57-21.14-86.7-.84-3.35-1.84-6.21-2.68-8.56-3.52,17.45-9.56,48.97-11.06,57.7-1.68,9.73-2.69,15.93-2.69,19.11,0,6.71,3.86,9.06,14.93,15.77l-.51,2.68c-7.04-.5-14.25-.67-21.13-.67-7.37,0-14.59.16-22.8.67l.5-2.68c16.1-8.05,18.79-10.74,22.64-27.67l16.93-70.94c-3.86-5.03-8.71-6.04-16.77-8.89l.34-2.52c11.74.84,25.49,1,31.86,1s10.74,0,15.43-.16c-.67,5.53.16,10.06,1.18,14.76,2.52,11.9,8.05,36.22,14.26,60.37l31.86-54c5.36-9.06,8.21-13.75,9.89-20.96,3.19.16,6.71.16,11.06.16,8.56,0,19.29-.33,29.69-1l-.5,2.69-3.02.67c-7.55,2.01-8.39,4.36-10.9,14.76-.84,3.69-5.03,25.49-7.21,37.07-2.35,12.4-7.88,42.59-7.88,47.46,0,4.02,3.42,5.11,6.03,6.2l2.44.65c.49.13.98.19,1.49.19h680.68Z"/>
    </g>
    <path class="cls-1" d="m360.75,66.1c2.22-2.55,4.67-7.34,3.86-11.57-.17-.9-.6-2.3,0-3.86.62-1.61,1.59-1.48,2.54-3.15.99-1.74,1.5-4.66.35-6.49-.25-.4-.71-.96-.96-1.93-.14-.56-.35-1.34,0-1.93.4-.68,1.29-.69,2.89-.96,2.26-.38,3.96-.67,4.03-1.16.11-.76-3.78-2.16-7.58-2.25-1.94-.05-2.74.28-3.2.52-1.89.99-2.6,3.03-2.89,3.86-1.08,3.09.23,4.52-.96,5.78-.77.82-1.71.63-4.82.96-2.33.25-4.7.67-5.78.96-5.62,1.51-8.41,8.03-8.6,8.49-.67,1.62-2.76,6.68-.08,11.52,2.45,4.43,7.52,6.18,11.57,6.01,5.31-.22,8.68-3.71,9.64-4.82Z"/>
  </g>
</svg>