<?xml version="1.0" encoding="UTF-8"?>
<svg xmlns="http://www.w3.org/2000/svg" xmlns:xlink="http://www.w3.org/1999/xlink" viewBox="0 0 659.72 292.97">
  <defs>
    <style>
      .cls-1 {
        fill: url(#_名称未設定グラデーション_37);
        stroke: #fff;
      }

      .cls-1, .cls-2, .cls-3 {
        stroke-miterlimit: 10;
      }

      .cls-4 {
        font-family: Magneto-Bold, Magneto;
        font-size: 144px;
        font-weight: 700;
        letter-spacing: -.02em;
      }

      .cls-4, .cls-2, .cls-5 {
        fill: #336;
      }

      .cls-6 {
        fill: none;
      }

      .cls-2 {
        stroke: #336;
      }

      .cls-3 {
        fill: #6ec3ce;
        stroke: #6ec3ce;
      }
    </style>
    <radialGradient id="_名称未設定グラデーション_37" data-name="名称未設定グラデーション 37" cx="182.43" cy="37.03" fx="182.43" fy="37.03" r="17.65" gradientUnits="userSpaceOnUse">
      <stop offset="0" stop-color="#fff"/>
      <stop offset="0" stop-color="#fbfdfd"/>
      <stop offset=".11" stop-color="#afdee4"/>
      <stop offset=".19" stop-color="#80cad4"/>
      <stop offset=".23" stop-color="#6ec3ce"/>
      <stop offset=".99" stop-color="#7c7c9d" stop-opacity=".68"/>
    </radialGradient>
  </defs>
  <g id="_レイヤー_5のコピー_2" data-name="レイヤー 5のコピー 2">
    <path class="cls-3" d="m149.41,229.03c-1.64,3.37-9.18,18.68-23.78,25.74-.11-1.46-.32-2.7-.72-4.51-.41-2.72-1.03-5.38-1.88-7.86-.18-.64-.4-1.21-.65-1.75-2.07-5.17-5.25-9.45-9.77-11.94,3.16-3.62,6.28-7.58,9.24-11.87.18-.27.36-.53.54-.8,14.89,2.1,25.3,11.41,27.02,12.99Z"/>
  </g>
  <g id="_レイヤー_5のコピー" data-name="レイヤー 5のコピー">
    <path class="cls-2" d="m119.68,283.68c8.27-12.02,9.87-48.33-9.04-55.91,11.33,16.74,14.22,34.12,9.04,55.91Z"/>
    <g>
      <path class="cls-2" d="m26.87,223.49c-1.19-1.85.1-5.86,2.67-7.67,11.67-6.75,25.79,19.06,23.49,20.8-1.55,1.12-6.5-13.17-19.43-12.11-2.07.17-5.54.83-6.74-1.03Z"/>
      <path class="cls-3" d="m32.81,241.27c-2.63-.63-2.83-5.56-.37-6.6,4.94-3.62,16.77-.01,16.58,1.26-.16,1.06-8.22-2.56-13.04,3.04-.77.9-1.9,2.54-3.18,2.3Z"/>
      <path class="cls-2" d="m52.84,248.77c-2.46-1.58-3.48-5.9-2-8.8,0,0,1.56-3.06,6.8-4,11.61-2.09,33.08,34.1,38.8,44-5.53-5.68-9.88-10.39-12.8-13.6-5.86-6.45-9.08-10.32-14.8-13.6-3.36-1.93-5.92-3.4-9.6-3.6-3.17-.18-4.65.73-6.4-.4Z"/>
      <path class="cls-3" d="m73.04,212.95c.85-13.63,11.56-30.66,21.35-41.07,1.44-1.53,2.89-2.95,4.32-4.27-5.24-14.64-14.36-23.84-17.07-26.45-2.94,2.11-24.47,18.11-26.4,47.2-2.08,31.38,20.46,50.85,22.8,52.8.5-.43,1.66-1.42,3.19-2.95-5.79-8.42-8.69-17.13-8.19-25.26Z"/>
      <g>
        <path class="cls-6" d="m108.56,181.1c7.26.94,12.08,6.48,14.29,12.15.65-2.44,1.04-4.2,1.17-4.79,1.75-8.11,3.17-19.8,1.25-34.14-6.74,3.9-11.76,8.01-15.23,11.25-7,6.53-11.85,13.35-15.4,19.37,3.15-2.12,8.16-4.57,13.92-3.83Z"/>
        <path class="cls-6" d="m100.19,235.71c2.55-2.79,3.84-4.18,4.97-5.6,5.82-7.24,9.71-14.68,12.37-21.04,1.11-4.39,1.98-10.45-1.51-15.46-.9-1.3-4.04-4.17-8-4.98-1.14-.23-3.81-1.26-9.27,1.24-6.36,2.92-9.86,7.67-11.83,10.12-1.51,3.26-2.66,6.16-3.68,9.97-1.85,6.88-4.97,23.13,2.26,40.45,3.29-3,8.36-7.79,14.69-14.71Z"/>
        <path class="cls-5" d="m86.38,251.38c29.51-21.82,61.79-54.37,39.77-97.57,1.6-.9,3.3-1.79,5.09-2.65-1.66.4-3.54.92-5.61,1.58-.29-.59-1.12-3.26-1.39-3.78.1.62.74,3.35.83,3.97-34.72,10.51-78.68,63.31-39.61,97.52-5.67,4.96-5.65,5.1.56,1.17,7.36,26.86,56.52,32.78,63.22,31.14-27.17-5.65-48.98-17.57-62.86-31.39Zm23.66-85.81c3.47-3.23,8.48-7.35,15.23-11.25,2.02,17.68.56,26.74-2.41,38.93-3.88-11.99-18.76-15.81-28.21-8.32,3.55-6.02,8.4-12.83,15.4-19.37Zm-26.8,44.4c10.21-40.96,72.15-21.34,2.26,40.45-7.23-17.32-4.11-33.57-2.26-40.45Z"/>
      </g>
      <path class="cls-2" d="m86.44,246.37c6.69-15.12-3.22-25.84,5.76-38.82,5.17-7.27,18.3-5.95,16.09,4.55-1.06,4.48-5.36,6.59-10.42,12.18-3.62,4-8.13,12.35-11.44,22.1Z"/>
    </g>
  </g>
  <g id="Text">
    <g>
      <g>
        <path class="cls-6" d="m268.82,121.06c5.21,0,11.13-6.76,15.63-17.33l6.9-34.79c-2.11-5.07-4.79-6.48-7.89-6.48-12.4,0-21.83,27.18-21.83,45.07,0,9.16,2.11,13.52,7.18,13.52Z"/>
        <path class="cls-6" d="m465.76,121.06c5.21,0,11.13-6.76,15.63-17.33l6.9-34.79c-2.11-5.07-4.79-6.48-7.89-6.48-12.4,0-21.83,27.18-21.83,45.07,0,9.16,2.11,13.52,7.18,13.52Z"/>
        <path class="cls-5" d="m158.85,103.03c-1.97,9.3-2.82,13.94-2.82,16.76,0,7.04,3.38,11.41,12.4,11.41,11.55,0,18.03-8.59,20.56-20.56l-1.69-.56c-3.66,7.61-6.48,9.58-8.59,9.58-.99,0-1.55-.7-1.55-2.11,0-1.69.7-4.93,1.55-9.58l4.79-22.96c1.83-9.16,2.82-14.37,5.07-25.07l-1.13-.56c-8.31,2.82-11.83,3.38-29.02,5.49l-.42,1.69,3.24,1.13c2.96,1.13,3.8,1.55,3.8,2.96,0,1.97-1.55,9.3-2.53,13.94l-3.66,18.45Z"/>
        <path class="cls-5" d="m198.98,98.24c-1.83,8.87-3.52,17.33-3.52,20.99,0,9.58,6.34,12.82,14.65,12.82,12.54,0,21.13-7.47,24.65-21.41l-1.55-.56c-4.51,7.89-9.3,10.85-13.52,10.85-2.39,0-3.1-1.55-3.1-3.52,0-1.69,1.41-9.16,2.96-17.18l5.49-27.33h14.65l1.69-8.03h-14.79l2.82-13.24-1.41-.7c-11.41,7.75-18.73,11.41-30.56,17.33l-.28,1.69,4.08.99c2.39.56,3.1.85,3.1,1.55,0,.42-.42,2.54-.99,5.35l-4.37,20.42Z"/>
        <path class="cls-5" d="m259.94,132.05c10.14,0,18.73-6.9,23.52-20l.7.14c-.7,2.82-1.13,5.49-1.13,7.75,0,6.9,3.38,11.27,11.69,11.27,11.55,0,18.17-8.17,20.14-20.56l-1.55-.56c-3.52,7.47-6.34,9.72-8.73,9.72-.99,0-1.41-.56-1.41-2.11,0-1.41.42-4.65,1.27-8.87l9.16-48.88h-2.11l-10.7,3.66c-4.51-2.96-10.28-4.23-16.76-4.23-28.45,0-43.1,24.65-43.1,49.72,0,13.8,7.04,22.96,19.02,22.96Zm23.52-69.58c3.1,0,5.77,1.41,7.89,6.48l-6.9,34.79c-4.51,10.56-10.42,17.33-15.63,17.33s-7.18-4.37-7.18-13.52c0-17.89,9.44-45.07,21.83-45.07Z"/>
        <path class="cls-5" d="m320.36,130.08h20.71l8.87-45.21c5.07-7.89,11.27-13.38,15.63-13.38,2.68,0,3.66,1.69,3.66,3.66,0,3.8-2.25,15.63-3.38,22.11l-6.06,32.82h20.14l5.78-31.27c.84-4.51,1.69-9.3,2.39-13.66,4.79-8.03,10.56-13.66,15.21-13.66,2.82,0,3.8,1.69,3.8,3.94,0,4.51-2.25,16.06-3.1,20.42-1.13,7.04-3.94,19.44-3.94,23.94,0,6.48,3.66,11.41,12.39,11.41,11.13,0,17.61-7.32,20.14-20.56l-1.69-.56c-3.24,7.32-6.34,9.72-8.45,9.72-.85,0-1.55-.42-1.55-1.97,0-1.69,1.27-9.3,3.24-19.02,1.83-9.72,3.8-19.86,3.8-25.21,0-7.89-5.07-14.23-15.07-14.23s-17.18,6.9-24.09,20.71c.42-2.54.56-4.79.56-6.48,0-7.89-4.51-14.23-14.79-14.23s-17.33,6.9-24.37,20.99l-.99-.28c1.13-4.23,2.25-8.03,2.25-11.55,0-5.07-3.66-7.89-10.14-7.89s-15.21,3.24-20.99,8.45l.56,1.41c2.53-.56,4.79-.85,6.76-.85,2.53,0,2.96.7,2.96,2.11,0,2.68-1.13,9.58-2.68,18.03l-7.61,40.28Z"/>
        <path class="cls-5" d="m456.89,132.05c10.14,0,18.73-6.9,23.52-20l.7.14c-.7,2.82-1.13,5.49-1.13,7.75,0,6.9,3.38,11.27,11.69,11.27,11.55,0,18.17-8.17,20.14-20.56l-1.55-.56c-3.52,7.47-6.34,9.72-8.73,9.72-.99,0-1.41-.56-1.41-2.11,0-1.41.42-4.65,1.27-8.87l9.16-48.88h-2.11l-10.7,3.66c-4.51-2.96-10.28-4.23-16.76-4.23-28.45,0-43.1,24.65-43.1,49.72,0,13.8,7.04,22.96,19.02,22.96Zm23.52-69.58c3.1,0,5.77,1.41,7.89,6.48l-6.9,34.79c-4.51,10.56-10.42,17.33-15.63,17.33s-7.18-4.37-7.18-13.52c0-17.89,9.44-45.07,21.83-45.07Z"/>
        <path class="cls-5" d="m178.9,50.91c7.19,0,11.2-5.66,11.2-11.32,0-4.83-2.83-9.08-8.96-9.08-7.19,0-11.2,5.66-11.2,11.2s3.07,9.2,8.96,9.2Z"/>
        <path class="cls-5" d="m553.02,134.79v2.78H141.92c-8.7-.48-15.35-.68-23.24-.68s-15.32.16-24.19.64l.32-2.58c10.64-2.26,11.12-4.2,13.71-14.68.96-3.71,4.99-26.28,7.09-37.73,1.78-9.83,5-27.09,6.45-36.6l-54.5,91.59h-3.06c-7.9-32.89-15.16-64.01-20.32-83.36-.81-3.22-1.77-5.97-2.58-8.23-3.38,16.77-9.19,47.09-10.64,55.47-1.61,9.35-2.59,15.32-2.59,18.38,0,6.45,3.71,8.71,14.35,15.16l-.49,2.58c-6.76-.48-13.7-.64-20.31-.64-7.09,0-14.03.16-21.93.64l.48-2.58c15.48-7.74,18.06-10.32,21.77-26.61l16.28-68.21c-3.71-4.84-8.38-5.81-16.12-8.54l.32-2.42c11.29.81,24.51.96,30.64.96s10.32,0,14.84-.16c-.65,5.32.16,9.67,1.13,14.19,2.42,11.44,7.74,34.83,13.71,58.05l30.64-51.92c5.15-8.71,7.9-13.22,9.51-20.16,3.07.16,6.45.16,10.64.16,8.23,0,18.54-.32,28.54-.96l-.48,2.59-2.9.64c-7.26,1.94-8.06,4.19-10.48,14.19-.81,3.55-4.84,24.51-6.93,35.64-2.26,11.93-7.58,40.95-7.58,45.63,0,3.86,3.29,4.91,5.8,5.96l2.35.62c.47.12.95.19,1.43.19h409.45Z"/>
      </g>
      <path class="cls-1" d="m188.95,48.65c2.13-2.45,4.49-7.06,3.71-11.12-.17-.86-.58-2.21,0-3.71.59-1.55,1.53-1.42,2.44-3.03.95-1.68,1.44-4.48.34-6.24-.24-.38-.68-.92-.93-1.85-.14-.54-.33-1.29,0-1.85.39-.66,1.24-.67,2.78-.93,2.17-.37,3.81-.65,3.88-1.11.1-.73-3.64-2.08-7.28-2.16-1.86-.04-2.63.26-3.08.5-1.82.96-2.5,2.92-2.78,3.71-1.04,2.97.22,4.34-.93,5.56-.74.79-1.64.6-4.63.93-2.24.24-4.51.65-5.56.93-5.4,1.45-8.08,7.72-8.27,8.17-.64,1.56-2.65,6.42-.08,11.08,2.36,4.26,7.23,5.94,11.12,5.78,5.1-.21,8.34-3.57,9.27-4.63Z"/>
    </g>
    <text class="cls-4" transform="translate(153.28 257.88)"><tspan x="0" y="0">Result</tspan></text>
  </g>
</svg>