<?xml version="1.0" encoding="UTF-8"?>
<svg xmlns="http://www.w3.org/2000/svg" xmlns:xlink="http://www.w3.org/1999/xlink" viewBox="0 0 994.13 234.61">
  <defs>
    <style>
      .cls-1 {
        fill: #fff;
      }

      .cls-2 {
        fill: url(#_名称未設定グラデーション_37);
      }

      .cls-3 {
        fill: #336;
      }

      .cls-4 {
        fill: #6ec3ce;
      }
    </style>
    <radialGradient id="_名称未設定グラデーション_37" data-name="名称未設定グラデーション 37" cx="373.53" cy="82.88" fx="373.53" fy="82.88" r="17.65" gradientUnits="userSpaceOnUse">
      <stop offset="0" stop-color="#fff"/>
      <stop offset="0" stop-color="#fbfdfd"/>
      <stop offset=".11" stop-color="#afdee4"/>
      <stop offset=".19" stop-color="#80cad4"/>
      <stop offset=".23" stop-color="#6ec3ce"/>
      <stop offset=".99" stop-color="#7c7c9d" stop-opacity=".68"/>
    </radialGradient>
  </defs>
  <g id="Butterfly">
    <g>
      <path class="cls-1" d="m80.96,171.91l-2.73-6.54c-9.72-23.29-6.17-45.41-3.19-56.52,1.28-4.76,2.77-8.8,5.14-13.94l.26-.56.91-1.13c2.79-3.5,7.97-10,16.88-14.09,8.08-3.71,12.92-2.56,14.98-2.07.11.03.22.05.31.07,6.55,1.33,11.76,5.87,13.66,8.6,6.55,9.4,3.68,20.73,2.73,24.45l-.09.36-.14.34c-4.49,10.74-10.22,20.47-17.02,28.92-1.53,1.91-3.23,3.76-6.31,7.13l-.45.49c-6.64,7.25-13.08,13.7-19.68,19.71l-5.25,4.77Zm8.04-72.26c-1.68,3.67-3.06,7.14-4.31,11.78-2.35,8.76-5.11,25.21.29,43.16,4.49-4.32,8.96-8.92,13.53-13.91h0s.45-.49.45-.49c3.04-3.32,4.57-4.99,5.9-6.65,6.14-7.63,11.33-16.43,15.44-26.17,1.73-7.07,1.31-12.13-1.33-15.93-.54-.77-3.64-3.74-7.44-4.51-.19-.04-.4-.09-.64-.14-1.24-.29-3.55-.84-8.5,1.43-6.74,3.09-10.64,7.99-13.23,11.23l-.16.2Z"/>
      <path class="cls-1" d="m116.85,232.13l6.18-26.02c6.46-27.23,3.01-48.73-11.19-69.72l-9.15-13.51,15.15,6.07c9.31,3.73,16.17,12.12,19.84,24.25,6.11,20.23,2.01,45.75-5.66,56.9l-15.16,22.03Z"/>
      <path class="cls-1" d="m73.04,157.78l-3.22-2.69c-3.56-2.97-34.71-30.26-31.83-73.74,2.62-39.47,31.17-61.84,36.86-65.93l3.38-2.42,3,2.88c6.02,5.79,17.11,18.27,23.74,36.77l1.12,3.13-2.45,2.24c-1.9,1.74-3.72,3.54-5.43,5.36-12.18,12.96-25.75,34.45-26.78,51.01-.58,9.43,2.85,19.86,9.92,30.15l2.37,3.44-2.97,2.94c-1.96,1.94-3.53,3.33-4.5,4.15l-3.21,2.71Zm4.27-131.62c-8.58,7.11-27.37,25.96-29.35,55.85-1.6,24.19,8.7,42.75,17.37,53.86-3-7.5-4.33-14.97-3.89-22.1h0c1.19-19.13,15.66-42.53,29.47-57.24,1.12-1.19,2.28-2.38,3.48-3.54-4.94-12.27-11.95-21.31-17.09-26.83Z"/>
      <path class="cls-1" d="m88.66,160.13l-9.31-3.63c.58-1.7,1.18-3.38,1.82-5.03,1.74-6.32,1.25-12.09.73-18.14-.79-9.19-1.61-18.69,5.67-29.23,5.09-7.17,14.98-10.15,22.54-6.84,6.32,2.76,9.26,9.16,7.67,16.7l-.03.12c-1.27,5.38-4.78,8.59-8.85,12.32-1.83,1.68-3.91,3.58-6.04,5.93-3.28,3.62-8.08,11.68-12.2,22.29-.52,1.79-1.18,3.62-2.01,5.49Zm14.82-54.2c-2.68,0-5.86,1.29-7.72,3.92-4.79,6.92-4.68,13.13-4.06,20.66,1.27-1.87,2.53-3.51,3.76-4.87,2.44-2.7,4.7-4.77,6.7-6.6,3.46-3.17,5.3-4.94,5.86-7.19.86-4.21-1.15-5.09-1.91-5.42-.75-.33-1.66-.5-2.62-.5Z"/>
      <path class="cls-1" d="m121.67,234.61l-27.99-28.75c-5.84-6-11.55-12.07-16.98-18.05l-2.04-2.26c-6.29-6.96-10.09-11.16-16.25-14.69-4.22-2.42-6.77-3.88-10.44-4.09-1.2-.07-2.2.02-3.17.11-2.14.19-4.8.43-7.69-1.42-5.46-3.51-7.51-11.96-4.38-18.08.33-.64,3.45-6.28,12.53-7.92,8.76-1.57,19.36,6.35,33.35,24.98,7.13,9.48,15.08,21.73,22.99,35.42l20.08,34.74Zm-74.54-77.85c.44,0,.91.01,1.4.04,6.03.33,10.12,2.68,14.85,5.39.41.23.81.47,1.2.71-8.34-9.85-14.42-14.15-17.55-13.58-3.79.68-5.2,2.4-5.46,2.75-.75,1.67,0,4.3.9,4.95.29.02.95-.04,1.44-.09.85-.08,1.93-.17,3.22-.17Zm-5.5-4.82s-.03.05-.04.08c.03-.05.04-.08.04-.08Z"/>
      <path class="cls-1" d="m131.31,176.86l-.56-7.31c-.12-1.58-.34-2.96-.85-5.24l-.06-.33c-.52-3.42-1.28-6.61-2.26-9.48l-.07-.23c-.16-.55-.36-1.08-.6-1.62l-.09-.21c-2.51-6.26-6.09-10.71-10.64-13.21l-5.43-2.99,4.08-4.68c4.27-4.89,8.25-10.01,11.82-15.19.22-.33.45-.66.68-1l1.75-2.6,3.1.44c20.1,2.83,34.39,14.79,38.29,18.39l2.73,2.52-1.62,3.34c-4.73,9.75-15.4,27.41-33.65,36.23l-6.6,3.19Zm5.76-25.5c1.04,3.04,1.86,6.35,2.45,9.86,10.3-6.98,17.25-17.26,21.28-24.72-4.8-3.8-14.54-10.39-27.04-12.89-2.46,3.48-5.08,6.92-7.83,10.28,4.24,3.62,7.63,8.55,10.12,14.73.41.91.74,1.81,1.02,2.75Z"/>
      <path class="cls-1" d="m39.89,150.42c-3.13,0-5.6-3.3-6.95-5.12-4.45-5.96-9.51-11.74-18.06-11.02-.33.03-.68.06-1.05.1-3.52.37-9.41.98-12.44-3.73-3.37-5.24-.16-13.39,4.86-16.9l.36-.23c9.93-5.75,21.97,0,32.21,15.39,6.91,10.39,8.35,17.22,4.27,20.32l-.1.07c-1.09.79-2.14,1.11-3.11,1.11Zm-23.57-26.19c2.1,0,4.06.25,5.89.69-1.16-.95-2.36-1.76-3.59-2.39-3.41-1.75-5.49-1.16-6.79-.46-.81.64-1.39,1.72-1.66,2.58.88-.01,1.97-.13,2.62-.2.45-.05.88-.09,1.27-.12.77-.06,1.52-.09,2.26-.09Z"/>
      <path class="cls-1" d="m13.83,156.42c-.44,0-.89-.04-1.36-.13l-.21-.05c-3.64-.88-6.21-4.17-6.56-8.4-.33-4.11,1.54-7.83,4.71-9.48,7.76-5.19,21.76-1.82,26.15.83,3.35,2.03,3.34,4.8,3.17,5.9-.52,3.49-3.25,4.94-8.1,4.32-3.96-.51-7.72-.72-10.24,2.21-.11.13-.23.27-.35.42-1.22,1.48-3.61,4.38-7.22,4.38Z"/>
      <path class="cls-1" d="m162.6,211.38c-8.66,0-23.94-2.15-38.66-7-15.68-5.17-35.04-14.79-42.99-31.9-3.33,1.79-5.91,1.51-7.66-.83-2.78-3.73.73-6.99,1.88-8.07.07-.06.14-.13.22-.2-15.15-15.33-20.77-34.28-16.27-55.13,7.54-34.91,41.29-65.92,70.06-76.57-.1-.48-.17-.83-.22-1.09L123.87,0l14.44,27.43c.17.31.32.67.51,1.17,1.04-.29,2.09-.55,3.12-.8l46.07-11.09-42.74,20.46c-.76.36-1.52.74-2.28,1.13,11.55,25.47,10.57,50.72-2.94,75.12-9.64,17.41-25.06,33.95-48.3,51.73,18.96,17,45.73,29.71,76.1,36.03l21.66,4.5-21.49,5.25c-1.23.3-3.09.46-5.42.46Zm-53.16-124.63c-.43,0-.88.02-1.33.05-8.77.69-19.4,8.55-23.39,24.55l-.02.08c-2.36,8.79-5.12,25.29.32,43.28,32.13-29.92,39.29-51.26,34.94-61.51-1.76-4.15-5.55-6.46-10.52-6.46Zm-11.24-23.6c-14.05,13.09-25.57,29.89-29.31,47.22-2.53,11.7-1.35,22.45,3.5,32.15-1.54-14.12.67-26.27,2.64-33.63,1.37-5.49,3.34-10.18,5.7-14.12l-3.8,3.01,13.65-23.16c2.39-4.06,4.92-7.87,7.61-11.47Zm32.78,37.85c-.19,3.52-.95,7.68-2.66,12.48,1.58-2.48,3.01-4.96,4.29-7.44l-1.63-5.04Zm9.86-32.64c-.73,6.85-2.08,13.42-3.92,20.95l-3.87,15.86c6.15-12.22,8.72-24.44,7.79-36.81Zm-31.25-1.27c2.85,0,5.73.42,8.54,1.27,4.51,1.36,8.47,3.71,11.66,6.82,1.53-8.47,2.2-17.29,1.25-29.81-4.43,3.01-8.6,6.34-12.45,9.93h0c-3.92,3.66-7.52,7.59-10.87,11.85.62-.04,1.24-.06,1.86-.06Z"/>
      <path class="cls-3" d="m5.59,127.95c-1.57-2.44.13-7.72,3.52-10.1,15.37-8.9,33.98,25.11,30.96,27.4-2.05,1.48-8.56-17.36-25.6-15.95-2.73.23-7.3,1.1-8.88-1.35Z"/>
      <path class="cls-4" d="m13.43,151.38c-3.46-.84-3.73-7.33-.48-8.69,6.51-4.77,22.1-.01,21.85,1.66-.21,1.4-10.83-3.37-17.18,4-1.02,1.18-2.51,3.35-4.19,3.03Z"/>
      <path class="cls-3" d="m39.81,161.26c-3.24-2.09-4.59-7.77-2.64-11.6,0,0,2.06-4.03,8.96-5.27,15.29-2.76,43.58,44.93,51.12,57.98-7.29-7.49-13.02-13.69-16.87-17.92-7.72-8.5-11.97-13.6-19.5-17.92-4.43-2.54-7.8-4.47-12.65-4.74-4.18-.23-6.13.96-8.43-.53Z"/>
      <path class="cls-4" d="m66.44,114.08c1.11-17.97,15.23-40.4,28.13-54.12,1.9-2.02,3.81-3.89,5.7-5.62-6.91-19.29-18.92-31.41-22.5-34.85-3.88,2.78-32.25,23.86-34.79,62.19-2.74,41.35,26.95,67,30.04,69.57.66-.56,2.18-1.87,4.21-3.88-7.63-11.1-11.46-22.57-10.79-33.29Z"/>
      <g>
        <path class="cls-1" d="m132.94,104.17l-5.54-14.24c-1.05-2.71-5.23-11.63-14.8-12.86h0c-5.99-.78-11.41,1.88-14.92,4.24l-18.3,12.31,11.2-19c6.05-10.26,12.98-18.98,21.18-26.63,6.29-5.87,13.35-11.09,20.97-15.49l6.46-3.73.99,7.4c2.13,15.85,1.55,31.56-1.71,46.7-.3,1.39-.82,3.65-1.6,6.55l-3.95,14.76Zm-19.06-37.02c6.07.78,11.56,3.66,15.88,8.12,1.64-9.79,2.09-19.82,1.34-29.96-4.45,3.03-8.64,6.37-12.51,9.98-3.89,3.63-7.48,7.53-10.8,11.77,1.95-.19,3.98-.18,6.09.09h0Z"/>
        <path class="cls-3" d="m84.01,164.71c38.89-28.75,81.42-71.65,52.4-128.56,2.11-1.19,4.34-2.36,6.71-3.49-2.19.53-4.67,1.21-7.39,2.09-.38-.78-1.47-4.29-1.84-4.99.14.82.97,4.42,1.09,5.23-45.75,13.84-103.67,83.42-52.2,128.5-7.47,6.54-7.44,6.72.73,1.54,9.69,35.39,74.48,43.19,83.31,41.03-35.8-7.44-64.53-23.15-82.83-41.35Zm31.17-113.07c4.57-4.26,11.18-9.68,20.06-14.82,2.66,23.29.74,35.23-3.18,51.3-5.11-15.8-24.72-20.84-37.17-10.96,4.68-7.93,11.07-16.91,20.29-25.52Zm-35.31,58.5c13.46-53.97,95.07-28.13,2.98,53.3-9.52-22.82-5.41-44.23-2.98-53.3Z"/>
      </g>
      <path class="cls-3" d="m84.09,158.1c8.82-19.92-4.24-34.05,7.59-51.16,6.81-9.58,24.11-7.84,21.21,5.99-1.4,5.9-7.07,8.69-13.73,16.05-4.77,5.27-10.71,16.27-15.07,29.12Z"/>
      <path class="cls-3" d="m127.89,207.27c10.9-15.84,13-63.69-11.91-73.67,14.93,22.06,18.73,44.95,11.91,73.67Z"/>
      <path class="cls-4" d="m167.07,135.25c-2.16,4.44-12.1,24.62-31.33,33.92-.15-1.93-.43-3.56-.95-5.94-.54-3.59-1.35-7.08-2.48-10.36-.24-.84-.53-1.6-.85-2.3-2.73-6.81-6.92-12.45-12.87-15.73,4.16-4.77,8.27-9.99,12.17-15.64.24-.35.48-.7.72-1.05,19.62,2.76,33.34,15.03,35.6,17.11Z"/>
    </g>
  </g>
  <g id="Text">
    <path class="cls-1" d="m185.01,188.76l2.12-11.32,2.22-1.11c14.59-7.3,15.85-8.82,19.13-23.24l15.68-65.68c-1.91-1.66-4.44-2.56-9.05-4.13-1.02-.35-2.11-.72-3.26-1.12l-3.83-1.35,1.49-11.1,4.69.33c12.68.91,27.45.95,30.28.95,5.94,0,10.24,0,14.66-.15l5.85-.2-.71,5.81c-.55,4.52.12,8.19,1.05,12.53,1.75,8.26,5.7,25.96,10.69,46.09l24.89-42.19c4.74-8.01,7.12-12.03,8.51-18.01l.95-4.07,4.18.21c1.57.08,3.24.12,5.09.14l2.31-3.88-.59,3.89c1.12,0,2.31,0,3.58,0,8.6,0,18.88-.35,28.22-.95l6.42-.42-2.27,12.16-6.03,1.33c-4.47,1.19-4.58,1.29-6.81,10.5-.73,3.23-4.62,23.4-6.88,35.39-3.63,19.17-7.49,41.34-7.49,44.71,0,.03,0,.05,0,.07.39.31,1.47.76,2.14,1.03l.25.1,2.03.54s.1.02.15.02h659.45v12.78H332.74c-8.59-.48-15.24-.68-22.97-.68-8.37,0-15.97.2-23.92.63l-5.98.33,1.52-12.04,3.48-.74c4.23-.9,6.29-1.66,7.11-2.61,1.01-1.18,1.71-4.04,2.78-8.37.75-2.88,3.7-19.15,5.66-29.92.5-2.77.97-5.34,1.37-7.51.35-1.92.75-4.14,1.19-6.53.2-1.08.4-2.19.6-3.31l-42.08,70.72h-9.84l-.92-3.83c-1.9-7.91-3.77-15.72-5.57-23.29-4.36-18.28-8.28-34.69-11.61-47.93-2.78,14.32-5.62,29.31-6.56,34.79-1.42,8.26-2.51,14.79-2.51,17.53,0,3.31,1.12,4.32,11.95,10.88l2.97,1.8-1.97,10.36-4.43-.32c-5.93-.42-12.46-.63-19.96-.63s-14.47.19-21.62.63l-6.4.39Zm124.77-11.02c3.84,0,7.42.05,11.1.15-.48-1.13-.78-2.46-.78-4.02,0-5.82,6.39-39.81,7.67-46.56,1.91-10.16,6.11-32.02,6.97-35.82,1.08-4.47,1.98-7.9,3.43-10.57-4.6.15-9.11.22-13.23.22-1.85,0-3.53,0-5.09-.01l-1.73,11.41c-1.17,7.73-3.45,20.2-5.29,30.23-.44,2.38-.84,4.59-1.19,6.52-.4,2.18-.86,4.74-1.37,7.5-2.82,15.53-5.04,27.64-5.8,30.59-1.12,4.52-2.03,7.87-3.49,10.44,2.87-.05,5.79-.08,8.81-.08Zm-96.75,0c2.52,0,4.94.02,7.27.07-3.42-2.88-5.33-5.88-5.74-10.29-1.91,4.44-4.29,7.49-7.87,10.26,2.05-.03,4.15-.05,6.33-.05Zm21.09-96.86l3.29,9.23c.92,2.58,1.89,5.37,2.72,8.7,3.92,14.68,8.94,35.74,14.76,60.13,1.17,4.9,2.37,9.91,3.58,14.98l11.98-20.13-1.15-4.47c-6.41-24.95-11.66-48.36-13.76-58.26-.7-3.25-1.33-6.5-1.45-10.1-2.87.04-5.94.04-9.62.04-1.33,0-5.25-.01-10.35-.11Z"/>
    <g>
      <g>
        <path class="cls-1" d="m800.5,182.28l-4.21-.1c-19.84-.46-44.01-.98-54.96-.98-5.99,0-12.59.21-21.42.7l-6.77.37,2.96-11.83,5.55-1.23c3.57-.78,3.71-.81,5.4-7.36.98-3.8,4.04-19.94,6.07-30.62l.62-3.29c3.89-19.44,6.39-33.98,6.39-37.1,0-.07,0-.14,0-.2-.38-.14-1-.33-2.02-.6l-6.79-1.7,2.08-11.11,6.72.24c7.03.25,13.09.47,18.81.47,6.09,0,11.81-.21,18.44-.46l8.66-.32-1.43,11.48-5.58,1.39c-3.95,1.03-4.03,1.05-5.49,7.52-2.29,10.85-5.41,26.68-6.31,31.27-3.89,20.34-6.66,36.27-6.8,39.15.5.05,1.23.1,2.32.1,3.13,0,4.5-.14,5.7-.26l.21-.02c9.3-.53,15.36-4.99,30.88-28.99l1.48-2.29h11.78l-3.4,11.65c-3.42,11.67-6.65,22.69-8.08,29.95l-.81,4.13Zm-14.95-10.34c2.3.05,4.59.1,6.85.15.66-2.8,1.47-5.92,2.38-9.25-3.13,3.79-6.14,6.79-9.23,9.09Zm-35.75-84.13c.22.89.33,1.9.33,3.03,0,5.32-4.12,26.73-6.58,39.01l-.61,3.24c-2.17,11.45-5.15,27.14-6.21,31.26-.72,2.79-1.44,5.07-2.31,6.94,2.43-.06,4.71-.09,6.91-.09,2.52,0,5.73.03,9.42.08-.22-.91-.34-1.94-.34-3.1,0-4.1,4.38-27.59,6.99-41.22.91-4.63,4.04-20.52,6.36-31.5.69-3.03,1.37-5.52,2.37-7.58-5.23.12-10.52.1-16.33-.06Z"/>
        <path class="cls-3" d="m741.33,176.2c-6.76,0-13.94.28-21.69.7l.56-2.25,2.53-.56c5.78-1.27,7.04-2.82,9.16-10.99,1.13-4.37,4.65-23.1,6.76-34.23,2.53-12.68,6.48-33.38,6.48-38.03,0-3.66-1.41-4.51-5.77-5.63l-2.25-.56.42-2.25c7.89.28,14.93.56,21.41.56,7.04,0,13.66-.28,21.41-.56l-.28,2.25-2.25.56c-6.48,1.69-7.47,3.8-9.16,11.27-2.11,10-4.93,24.23-6.34,31.41-2.53,13.24-6.9,36.76-6.9,40.28,0,3.8,1.41,4.93,7.32,4.93,3.24,0,4.79-.14,6.2-.28,12.25-.7,19.58-7.75,34.79-31.27h2.39c-3.94,13.52-8.03,27.04-9.72,35.64-18.31-.42-43.66-.99-55.07-.99Z"/>
      </g>
      <g>
        <path class="cls-1" d="m829.39,183.6c-14.59,0-24.02-10.97-24.02-27.96,0-27.19,16.52-54.72,48.1-54.72,6.76,0,12.57,1.26,17.31,3.75l9.33-3.19h8.97l-9.34,49.86.46-.97,9.71,3.53-.65,4.07c-2.5,15.75-11.65,24.78-25.08,24.78-7.25,0-12.47-2.92-14.99-8.11-5.37,5.81-12.17,8.96-19.8,8.96Zm4.89-67.47c-12.89,8.05-18.91,24.2-18.91,39.51,0,5.4,1.37,17.96,14.02,17.96,2,0,3.91-.35,5.71-1.04-7.22-.65-10.88-6.85-10.88-18.46,0-10.64,3.42-26.88,10.06-37.96Zm21.55,37.95l3.91.78-1.27,5.09c-.64,2.56-.98,4.82-.98,6.54,0,4.07,1.07,6.27,6.69,6.27,2.83,0,5.29-.63,7.37-1.88-2.18-.89-3.92-3.03-3.92-6.64,0-1.92.5-5.51,1.36-9.85l7.71-41.16-7.17,2.45-2.05-1.34c-1.33-.87-2.85-1.58-4.55-2.12.21.44.42.89.62,1.37l.58,1.4-7.3,36.79-.2.48c-.27.62-.54,1.24-.81,1.83Zm-4.77-40.06c-7.39,0-16.83,22.47-16.83,40.07,0,4.73.61,6.9,1.13,7.89.29.56.37.63,1.06.63,1.59,0,6.29-3.39,10.83-13.82l6.48-32.67c-1.11-2.1-1.96-2.1-2.67-2.1Z"/>
        <path class="cls-3" d="m884.32,157.19c-1.97,12.4-8.59,20.56-20.14,20.56-8.31,0-11.69-4.37-11.69-11.27,0-2.25.42-4.93,1.13-7.75l-.7-.14c-4.79,13.1-13.38,20-23.52,20-11.97,0-19.02-9.16-19.02-22.96,0-25.07,14.65-49.72,43.1-49.72,6.48,0,12.25,1.27,16.76,4.23l10.71-3.66h2.11l-9.15,48.88c-.85,4.23-1.27,7.46-1.27,8.87,0,1.55.42,2.11,1.41,2.11,2.39,0,5.21-2.25,8.73-9.72l1.55.56Zm-25.38-41.69c-2.11-5.07-4.79-6.48-7.89-6.48-12.4,0-21.83,27.18-21.83,45.07,0,9.16,2.11,13.52,7.18,13.52s11.13-6.76,15.63-17.33l6.9-34.79Z"/>
      </g>
      <g>
        <path class="cls-1" d="m890.34,184.02h-9.09l17.41-86.28c.79-3.83,1.31-6.68,1.56-8.52l-7.42-2.47,1.72-9.45,3.67-.44c16.19-1.92,20.73-3.12,28.7-5.83l1.85-.63,6.98,3.1-1.14,4.15c-1.98,7.22-3.64,14.91-4.27,18.32l-.02.1-1.69,8.17c-.07.32-.13.63-.2.94,5.43-3.65,10.5-4.27,13.33-4.27,15.21,0,24.3,10.56,24.3,28.24,0,26.22-15.18,54.44-48.52,54.44-6.88,0-13.26-1.48-18.62-4.31l-8.54,4.73Zm43.07-70.09c2.98,2.33,5.28,7.05,5.28,16.07,0,12.62-4.44,32.14-13.29,42.88,21.09-3.97,30.63-23.93,30.63-43.73,0-18.24-10.76-18.24-14.3-18.24-2.85,0-5.68,1.05-8.32,3.02Zm-24.49,54.88c1,1.82,1.75,1.82,2.23,1.82,8.03,0,17.54-22.03,17.54-40.64,0-6.44-1.28-7.94-1.42-8.09-.02,0-.08,0-.2,0-.19,0-.4.03-.62.08-1.06,1.77-2.04,3.72-2.92,5.85l-1.78,4.3-3.63-1.21c-.82,1.48-1.64,3.16-2.44,5.07l-6.75,32.83Zm1.24-83.45c.14.59.22,1.24.22,1.96,0,2.18-.54,5.66-1.93,12.42l-14.27,70.72,2.72-1.51h1.77l7.39-35.91.18-.44c2.44-5.9,5.31-10.67,8.44-14.14,1.29-4.16,2.63-9.11,4.11-16.24l1.68-8.11c.51-2.74,1.39-6.89,2.47-11.36-3.55.98-7.35,1.79-12.79,2.62Z"/>
        <path class="cls-3" d="m961.02,129.16c0,24.37-13.94,49.44-43.52,49.44-6.9,0-13.1-1.69-17.89-4.65h-1.41l-9.15,5.07h-1.69l16.2-80.29c.99-4.79,1.83-9.3,1.83-11.41,0-1.41-.42-1.83-3.52-2.82l-3.38-1.13.28-1.55c16.62-1.97,21.41-3.24,29.72-6.06l1.27.56c-1.97,7.18-3.66,14.93-4.37,18.73l-1.69,8.17c-2.25,10.85-4.23,16.9-6.06,22.25l1.27.42c6.2-14.93,15.49-20,22.82-20,12.68,0,19.3,8.45,19.3,23.24Zm-27.33.85c0-8.45-1.97-13.1-6.62-13.1-5.77,0-11.83,7.04-16.2,17.61l-7.18,34.93c1.83,4.37,4.23,6.2,7.47,6.2,13.1,0,22.54-27.33,22.54-45.64Z"/>
      </g>
      <g>
        <path class="cls-1" d="m968.24,182.75c-9.08,0-15.42-6.34-15.42-15.42,0-10.56,7.54-18.52,17.54-18.52,9.08,0,15.42,6.34,15.42,15.42,0,10.73-7.38,18.52-17.54,18.52Zm2.11-23.95c-4.44,0-7.54,3.5-7.54,8.52,0,3.5,1.93,5.42,5.42,5.42,5.56,0,7.54-4.4,7.54-8.52,0-3.5-1.93-5.42-5.42-5.42Z"/>
        <path class="cls-3" d="m957.82,167.33c0-7.75,5.35-13.52,12.54-13.52,6.34,0,10.42,4.23,10.42,10.42,0,7.89-4.93,13.52-12.54,13.52-6.34,0-10.42-4.23-10.42-10.42Z"/>
      </g>
    </g>
    <g>
      <path class="cls-1" d="m656.87,171.91c-8.08,0-12.18-6.23-12.18-18.52,0-17.47,9.22-50.07,26.83-50.07,5.65,0,9.86,3.21,12.5,9.55l.58,1.4-7.3,36.79-.2.48c-5.52,12.94-12.89,20.36-20.23,20.36Zm14.65-58.59c-7.39,0-16.83,22.47-16.83,40.07,0,4.73.61,6.9,1.13,7.89.29.56.37.63,1.06.63,1.59,0,6.29-3.39,10.83-13.82l6.48-32.68c-1.11-2.1-1.96-2.1-2.67-2.1Z"/>
      <path class="cls-1" d="m459.92,171.91c-8.08,0-12.18-6.23-12.18-18.52,0-17.47,9.22-50.07,26.83-50.07,5.65,0,9.86,3.21,12.5,9.55l.58,1.4-7.3,36.79-.2.48c-5.52,12.94-12.9,20.36-20.23,20.36Zm14.65-58.59c-7.39,0-16.83,22.47-16.83,40.07,0,4.73.61,6.9,1.13,7.89.29.56.37.63,1.06.63,1.59,0,6.29-3.39,10.83-13.82l6.48-32.68c-1.11-2.1-1.96-2.1-2.67-2.1Z"/>
      <g>
        <path class="cls-1" d="m359.53,182.05c-11.06,0-17.4-5.98-17.4-16.41,0-3.4.94-8.44,2.92-17.77l3.66-18.42c.52-2.47,1.7-8.03,2.21-11.12-.11-.04-.2-.08-.28-.11l-7.49-2.6,2.36-9.45,3.41-.42c16.88-2.08,20.16-2.6,28.02-5.27l1.98-.67,6.44,3.22-.79,3.78c-1.66,7.88-2.63,12.79-3.76,18.47-.4,2.03-.82,4.15-1.3,6.55l-3.78,18.14.09-.18,10.1,3.37-.92,4.37c-3.3,15.59-12.58,24.53-25.46,24.53Zm1.31-67.75c.2.64.31,1.37.31,2.18,0,2.12-.89,6.71-2.64,14.98l-3.66,18.45c-1.72,8.08-2.71,13.25-2.71,15.72,0,4.25,1.14,6.41,7.4,6.41,2.89,0,5.41-.71,7.58-2.14-2.16-.98-3.84-3.18-3.84-6.53,0-1.76.43-4.04,1.08-7.49.17-.92.36-1.91.55-2.99l.02-.13,4.79-22.96c.47-2.35.89-4.47,1.29-6.49.74-3.74,1.42-7.15,2.27-11.29-3.42.88-6.96,1.51-12.42,2.26Z"/>
        <path class="cls-3" d="m349.96,148.88c-1.97,9.3-2.82,13.94-2.82,16.76,0,7.04,3.38,11.41,12.4,11.41,11.55,0,18.03-8.59,20.56-20.56l-1.69-.56c-3.66,7.61-6.48,9.58-8.59,9.58-.99,0-1.55-.7-1.55-2.11,0-1.69.7-4.93,1.55-9.58l4.79-22.96c1.83-9.16,2.82-14.37,5.07-25.07l-1.13-.56c-8.31,2.82-11.83,3.38-29.02,5.49l-.42,1.69,3.24,1.13c2.96,1.13,3.8,1.55,3.8,2.96,0,1.97-1.55,9.3-2.53,13.94l-3.66,18.45Z"/>
      </g>
      <g>
        <path class="cls-1" d="m401.21,182.9c-12.49,0-19.65-6.49-19.65-17.82,0-4.11,1.57-12.04,3.62-22v-.03s4.37-20.42,4.37-20.42c.08-.42.17-.87.26-1.32l-7.27-1.76,1.47-8.79,2.28-1.14c11.75-5.88,18.85-9.42,29.99-16.99l2.42-1.65,7.49,3.74-2.34,10.98h14.78l-3.8,18.03h-14.61l-4.69,23.31c-.66,3.41-2.03,10.51-2.6,14.18,2.28-1.09,4.74-3.8,7.02-7.78l2.09-3.66,9.75,3.55-1.11,4.38c-4.1,16.24-14.58,25.19-29.5,25.19Zm-6.23-37.78c-1.36,6.6-3.41,16.55-3.41,19.96,0,3.78.75,7.82,9.65,7.82,2.79,0,5.32-.45,7.58-1.34-3.72-.81-6.1-3.95-6.1-8.31,0-1.79.71-6.02,3.05-18.13l5.91-29.41h-.14l1.99-9.37c-4.99,3.06-9.53,5.52-14.54,8.09.87.91,1.47,2.15,1.47,3.89,0,.85-.16,1.74-1.08,6.33l-4.38,20.47Zm17.72,18.35h0Z"/>
        <path class="cls-3" d="m390.09,144.09c-1.83,8.87-3.52,17.33-3.52,20.99,0,9.58,6.34,12.82,14.65,12.82,12.54,0,21.13-7.47,24.65-21.41l-1.55-.56c-4.51,7.89-9.3,10.85-13.52,10.85-2.39,0-3.1-1.55-3.1-3.52,0-1.69,1.41-9.16,2.96-17.18l5.49-27.33h14.65l1.69-8.03h-14.79l2.82-13.24-1.41-.7c-11.41,7.75-18.73,11.41-30.56,17.33l-.28,1.69,4.08.99c2.39.56,3.1.85,3.1,1.55,0,.42-.42,2.54-.99,5.35l-4.37,20.42Z"/>
      </g>
      <g>
        <path class="cls-1" d="m451.05,182.9c-14.59,0-24.02-10.97-24.02-27.96,0-27.19,16.52-54.72,48.1-54.72,6.76,0,12.57,1.26,17.31,3.75l9.33-3.19h8.97l-9.34,49.86.46-.97,9.71,3.53-.65,4.07c-2.5,15.75-11.65,24.78-25.08,24.78-7.25,0-12.47-2.92-14.99-8.11-5.37,5.81-12.17,8.96-19.8,8.96Zm7.75-69.06c-14.85,7.35-21.77,24.7-21.77,41.1,0,5.4,1.37,17.96,14.02,17.96,2.18,0,4.26-.42,6.2-1.24-6.32-1.28-9.51-7.41-9.51-18.27s3.76-28.48,11.06-39.55Zm20.39,39.88l2.21.44-1.27,5.09c-.64,2.56-.98,4.82-.98,6.54,0,4.07,1.07,6.27,6.69,6.27,2.83,0,5.29-.63,7.37-1.89-2.19-.88-3.92-3.03-3.92-6.64,0-1.92.5-5.52,1.36-9.85l7.71-41.16-7.17,2.45-2.05-1.34c-.71-.47-1.48-.89-2.3-1.26.07.17.15.33.22.51l.58,1.4-7.3,36.79-.2.48c-.32.74-.64,1.47-.97,2.17Zm-4.62-40.4c-7.39,0-16.83,22.47-16.83,40.07,0,4.73.61,6.9,1.13,7.89.29.56.37.63,1.06.63,1.59,0,6.29-3.39,10.83-13.82l6.48-32.67c-1.11-2.1-1.96-2.1-2.67-2.1Z"/>
        <path class="cls-3" d="m451.05,177.9c10.14,0,18.73-6.9,23.52-20l.7.14c-.7,2.82-1.13,5.49-1.13,7.75,0,6.9,3.38,11.27,11.69,11.27,11.55,0,18.17-8.17,20.14-20.56l-1.55-.56c-3.52,7.47-6.34,9.72-8.73,9.72-.99,0-1.41-.56-1.41-2.11,0-1.41.42-4.65,1.27-8.87l9.16-48.88h-2.11l-10.7,3.66c-4.51-2.96-10.28-4.23-16.76-4.23-28.45,0-43.1,24.65-43.1,49.72,0,13.8,7.04,22.96,19.02,22.96Zm23.52-69.58c3.1,0,5.77,1.41,7.89,6.48l-6.9,34.79c-4.51,10.56-10.42,17.33-15.63,17.33s-7.18-4.37-7.18-13.52c0-17.89,9.44-45.07,21.83-45.07Z"/>
      </g>
      <g>
        <path class="cls-1" d="m603.58,182.05c-10.73,0-17.4-6.29-17.4-16.41,0-3.46,1.21-9.77,2.49-16.44.59-3.08,1.15-5.99,1.52-8.29l.07-.39c.66-3.39,2.52-12.99,2.9-17.79-1.95.98-5.37,3.89-9.17,10.03-.65,3.98-1.43,8.39-2.26,12.82l-6.53,35.35h-30.31l7.15-38.73c.19-1.08.42-2.37.66-3.75.82-4.6,2.1-11.77,2.51-15.6-2.15,1.14-5.73,4.22-9.45,9.79l-9.48,48.29h-30.85l8.73-46.21c1.17-6.38,1.95-11.09,2.33-14.07-1.04.12-2.16.31-3.37.58l-4.15.92-3.44-8.59,2.59-2.34c6.35-5.73,16.36-9.74,24.34-9.74s12.3,3.42,14.11,7.64c4.82-5.18,10.98-8.91,19.13-8.91,8.58,0,14.99,3.84,17.96,10.29,4.97-5.97,11.41-10.29,20.35-10.29,12.01,0,20.07,7.73,20.07,19.23,0,5.53-1.74,14.76-3.59,24.54l-.3,1.59c-.3,1.47-.58,2.87-.83,4.18l10.1,3.37-.82,4.3c-3.9,20.35-15.78,24.62-25.05,24.62Zm-3.53-39.48c-.39,2.44-.96,5.39-1.56,8.52-1.03,5.37-2.31,12.04-2.31,14.56,0,3.17.88,6.41,7.4,6.41,2.26,0,4.91-.33,7.41-1.92-2.18-.9-3.96-3-3.96-6.46s2.78-17.26,3.34-20.01l.29-1.53c1.68-8.9,3.42-18.1,3.42-22.69,0-5.86-3.67-9.23-10.07-9.23-2.67,0-5.24.53-7.87,2.25,4.31.7,7.09,4.06,7.09,8.81,0,4.33-1.59,13.12-3.15,21.15l-.03.15Zm-43.14,28.36h9.97l4.74-25.68,3.36-20.14c.41-2.45.49-4.43.49-5.66,0-6.12-3.29-9.23-9.79-9.23-2.43,0-4.98.41-7.75,2.19,4.42.54,7.4,3.92,7.4,8.59,0,3.32-1.21,10.36-2.79,19.21-.24,1.37-.47,2.64-.67,3.76l-4.97,26.96Zm-39.41,0h10.56l8.05-41.01-1.86-.53,1.6-5.99c.94-3.49,1.75-6.5,1.75-9.02,0-1.01,0-2.89-5.14-2.89-2.03,0-4.64.49-7.34,1.39,1.45,1.68,1.63,3.8,1.63,4.73,0,2.73-.83,8.39-2.76,18.93l-6.49,34.38Z"/>
        <path class="cls-3" d="m511.46,175.93h20.71l8.87-45.21c5.07-7.89,11.27-13.38,15.63-13.38,2.68,0,3.66,1.69,3.66,3.66,0,3.8-2.25,15.63-3.38,22.11l-6.06,32.82h20.14l5.78-31.27c.84-4.51,1.69-9.3,2.39-13.66,4.79-8.03,10.56-13.66,15.21-13.66,2.82,0,3.8,1.69,3.8,3.94,0,4.51-2.25,16.06-3.1,20.42-1.13,7.04-3.94,19.44-3.94,23.94,0,6.48,3.66,11.41,12.39,11.41,11.13,0,17.61-7.32,20.14-20.56l-1.69-.56c-3.24,7.32-6.34,9.72-8.45,9.72-.85,0-1.55-.42-1.55-1.97,0-1.69,1.27-9.3,3.24-19.02,1.83-9.72,3.8-19.86,3.8-25.21,0-7.89-5.07-14.23-15.07-14.23s-17.18,6.9-24.09,20.71c.42-2.54.56-4.79.56-6.48,0-7.89-4.51-14.23-14.79-14.23s-17.33,6.9-24.37,20.99l-.99-.28c1.13-4.23,2.25-8.03,2.25-11.55,0-5.07-3.66-7.89-10.14-7.89s-15.21,3.24-20.99,8.45l.56,1.41c2.53-.56,4.79-.85,6.76-.85,2.53,0,2.96.7,2.96,2.11,0,2.68-1.13,9.58-2.68,18.03l-7.61,40.28Z"/>
      </g>
      <g>
        <path class="cls-1" d="m647.99,182.9c-14.59,0-24.02-10.97-24.02-27.96,0-27.19,16.52-54.72,48.1-54.72,6.76,0,12.57,1.26,17.31,3.75l9.33-3.19h8.97l-9.34,49.86.46-.97,9.71,3.53-.65,4.07c-2.5,15.75-11.65,24.78-25.08,24.78-7.25,0-12.47-2.92-14.99-8.11-5.37,5.81-12.17,8.96-19.8,8.96Zm7.75-69.06c-14.85,7.35-21.77,24.7-21.77,41.1,0,5.4,1.37,17.96,14.02,17.96,2.18,0,4.26-.42,6.2-1.24-6.32-1.29-9.51-7.41-9.51-18.27s3.76-28.48,11.06-39.55Zm20.39,39.88l2.21.44-1.27,5.09c-.64,2.56-.98,4.82-.98,6.54,0,4.07,1.07,6.27,6.69,6.27,2.83,0,5.29-.63,7.37-1.89-2.19-.88-3.92-3.03-3.92-6.64,0-1.92.5-5.52,1.36-9.85l7.71-41.16-7.17,2.45-2.05-1.34c-.71-.47-1.48-.89-2.3-1.26.07.17.15.33.22.51l.58,1.4-7.3,36.79-.2.48c-.32.74-.64,1.47-.97,2.17Zm-4.62-40.4c-7.39,0-16.83,22.47-16.83,40.07,0,4.73.61,6.9,1.13,7.89.29.56.37.63,1.06.63,1.59,0,6.29-3.39,10.83-13.82l6.48-32.67c-1.11-2.1-1.96-2.1-2.67-2.1Z"/>
        <path class="cls-3" d="m648,177.9c10.14,0,18.73-6.9,23.52-20l.7.14c-.7,2.82-1.13,5.49-1.13,7.75,0,6.9,3.38,11.27,11.69,11.27,11.55,0,18.17-8.17,20.14-20.56l-1.55-.56c-3.52,7.47-6.34,9.72-8.73,9.72-.99,0-1.41-.56-1.41-2.11,0-1.41.42-4.65,1.27-8.87l9.16-48.88h-2.11l-10.7,3.66c-4.51-2.96-10.28-4.23-16.76-4.23-28.45,0-43.1,24.65-43.1,49.72,0,13.8,7.04,22.96,19.02,22.96Zm23.52-69.58c3.1,0,5.77,1.41,7.89,6.48l-6.9,34.79c-4.51,10.56-10.42,17.33-15.63,17.33s-7.18-4.37-7.18-13.52c0-17.89,9.44-45.07,21.83-45.07Z"/>
      </g>
      <g>
        <path class="cls-1" d="m370.01,101.76c-8.35,0-13.96-5.71-13.96-14.2,0-7.96,6.06-16.2,16.2-16.2,8.22,0,13.96,5.79,13.96,14.08s-5.68,16.32-16.2,16.32Zm2.24-20.4c-4.91,0-6.2,4.06-6.2,6.2,0,3.69,1.9,4.2,3.96,4.2,4.91,0,6.2-4.13,6.2-6.32,0-4.08-2.88-4.08-3.96-4.08Z"/>
        <path class="cls-3" d="m370.01,96.76c7.19,0,11.2-5.66,11.2-11.32,0-4.83-2.83-9.08-8.96-9.08-7.19,0-11.2,5.66-11.2,11.2s3.07,9.2,8.96,9.2Z"/>
      </g>
      <path class="cls-3" d="m989.13,180.64v2.78H333.02c-8.7-.48-15.35-.68-23.24-.68s-15.32.16-24.19.64l.32-2.58c10.64-2.26,11.12-4.2,13.71-14.68.96-3.71,4.99-26.28,7.09-37.73,1.78-9.83,5-27.09,6.45-36.6l-54.5,91.59h-3.06c-7.9-32.89-15.16-64.01-20.32-83.36-.81-3.22-1.77-5.97-2.58-8.23-3.38,16.77-9.19,47.09-10.64,55.47-1.61,9.35-2.59,15.32-2.59,18.38,0,6.45,3.71,8.71,14.35,15.16l-.49,2.58c-6.76-.48-13.7-.64-20.31-.64-7.09,0-14.03.16-21.93.64l.48-2.58c15.48-7.74,18.06-10.32,21.77-26.61l16.28-68.21c-3.71-4.84-8.38-5.81-16.12-8.54l.32-2.42c11.29.81,24.51.96,30.64.96s10.32,0,14.84-.16c-.65,5.32.16,9.67,1.13,14.19,2.42,11.44,7.74,34.83,13.71,58.05l30.64-51.92c5.15-8.71,7.9-13.22,9.51-20.16,3.07.16,6.45.16,10.64.16,8.23,0,18.54-.32,28.54-.96l-.48,2.59-2.9.64c-7.26,1.94-8.06,4.19-10.48,14.19-.81,3.55-4.84,24.51-6.93,35.64-2.26,11.93-7.58,40.95-7.58,45.63,0,3.86,3.29,4.91,5.8,5.96l2.35.62c.47.12.95.19,1.43.19h654.45Z"/>
    </g>
    <g>
      <path class="cls-1" d="m370.32,104.14c-4.95,0-11.6-2.16-15.03-8.37-2.48-4.48-2.54-9.67-.17-15.4.38-.92,3.92-9.02,11.59-11.09,1.41-.38,4.01-.82,6.32-1.07.25-.03.48-.05.7-.07.08-.88.27-1.92.68-3.1.4-1.14,1.61-4.61,5.17-6.48,1.52-.8,3.23-1.13,5.53-1.07,2.74.06,8.53.91,10.86,3.65,1,1.18,1.46,2.71,1.25,4.19-.43,3.12-2.71,4.23-5.38,4.86.83,3.1.08,6.51-1.29,8.91-.71,1.26-1.48,2.02-2.04,2.52.02.12.05.26.08.37l.09.42c1.15,5.91-1.89,11.97-4.85,15.36-1.58,1.81-5.99,6.06-12.83,6.35-.22,0-.45.01-.67.01Zm8.98-26.75c-1.15.43-2.32.52-3.4.61-.49.04-1.07.08-1.79.16-2.15.23-4.13.6-4.8.78-2.54.68-4.47,4.1-4.94,5.24-.74,1.8-1.59,4.46-.32,6.75,1.3,2.35,4.22,3.29,6.54,3.21,2.96-.12,4.97-2.08,5.7-2.92h0c1.54-1.76,2.95-4.9,2.57-6.89l-.05-.24c-.24-1.14-.75-3.51.29-6.21.07-.17.13-.33.21-.49Z"/>
      <path class="cls-2" d="m380.05,94.5c2.13-2.45,4.49-7.06,3.71-11.12-.17-.86-.58-2.21,0-3.71.59-1.55,1.53-1.42,2.44-3.03.95-1.68,1.44-4.48.34-6.24-.24-.38-.68-.92-.93-1.85-.14-.54-.33-1.29,0-1.85.39-.66,1.24-.67,2.78-.93,2.17-.37,3.81-.65,3.88-1.11.1-.73-3.64-2.08-7.28-2.16-1.86-.04-2.63.26-3.08.5-1.82.96-2.5,2.92-2.78,3.71-1.04,2.97.22,4.34-.93,5.56-.74.79-1.64.6-4.63.93-2.24.24-4.51.65-5.56.93-5.4,1.45-8.08,7.72-8.27,8.17-.64,1.56-2.65,6.42-.08,11.08,2.36,4.26,7.23,5.94,11.12,5.78,5.1-.21,8.34-3.57,9.27-4.63Z"/>
    </g>
  </g>
</svg>