<?xml version="1.0" encoding="utf-8"?>
<!-- Generator: Adobe Illustrator 27.4.0, SVG Export Plug-In . SVG Version: 6.00 Build 0)  -->
<svg version="1.1" id="レイヤー_1" xmlns="http://www.w3.org/2000/svg" xmlns:xlink="http://www.w3.org/1999/xlink" x="0px"
	 y="0px" viewBox="0 0 270 114.5" style="enable-background:new 0 0 270 114.5;" xml:space="preserve">
<style type="text/css">
	.st0{fill:#6EC3CE;stroke:#6EC3CE;stroke-miterlimit:10;}
	.st1{fill:#333366;stroke:#333366;stroke-miterlimit:10;}
	.st2{fill:none;}
	.st3{fill:#333366;}
</style>
<g id="_レイヤー_5のコピー_2">
	<path class="st0" d="M89.2,73.5c-1.1,2.5-9.4,13.8-19.6,19c-0.1-1.1-0.2-2-0.5-3.3c-0.3-2-0.7-4-1.3-5.8c-0.1-0.5-0.3-0.9-0.4-1.3
		c-1.4-3.8-3.7-7-6.8-8.8c2.2-2.7,4.4-5.6,6.4-8.7c0.1-0.2,0.2-0.4,0.4-0.6C77.8,65.4,88,72.3,89.2,73.5L89.2,73.5z"/>
</g>
<g id="_レイヤー_5のコピー">
	<path class="st1" d="M65.5,113.7c5.8-8.9,6.9-35.6-6.3-41.2C67.1,84.8,69.1,97.6,65.5,113.7z"/>
	<g>
		<path class="st1" d="M0.8,69.4C0,68,0.9,65.1,2.7,63.7c8.1-5,18,14,16.4,15.3c-1.1,0.8-4.5-9.7-13.5-8.9
			C4.1,70.3,1.6,70.7,0.8,69.4L0.8,69.4z"/>
		<path class="st0" d="M4.9,82.5c-1.8-0.5-2-4.1-0.3-4.9c3.4-2.7,11.7,0,11.6,0.9c-0.1,0.8-5.7-1.9-9.1,2.2
			C6.6,81.4,5.8,82.6,4.9,82.5L4.9,82.5z"/>
		<path class="st1" d="M18.9,88c-1.7-1.2-2.4-4.3-1.4-6.5c0,0,1.1-2.2,4.7-2.9c8.1-1.5,23,25.1,27,32.4c-3.9-4.2-6.9-7.6-8.9-10
			c-4.1-4.8-6.3-7.6-10.3-10c-2.3-1.4-4.1-2.5-6.7-2.6C21.2,88.1,20.1,88.8,18.9,88L18.9,88z"/>
		<path class="st0" d="M33,61.6c0.6-10,8-22.6,14.9-30.2c1-1.1,2-2.2,3-3.1C47.2,17.5,40.9,10.7,39,8.8c-2,1.5-17,13.3-18.4,34.7
			c-1.5,23.1,14.2,37.4,15.9,38.9c0.3-0.3,1.2-1,2.2-2.2C34.6,74,32.6,67.6,33,61.6L33,61.6z"/>
		<g>
			<path class="st2" d="M57.7,38.2c5.1,0.7,8.4,4.8,10,8.9c0.5-1.8,0.7-3.1,0.8-3.5c1.2-6,2.2-14.6,0.9-25.1
				c-4.7,2.9-8.2,5.9-10.6,8.3C53.9,31.5,50.5,36.6,48,41C50.2,39.4,53.7,37.6,57.7,38.2L57.7,38.2z"/>
			<path class="st2" d="M51.9,78.4c1.8-2,2.7-3.1,3.5-4.1c4.1-5.3,6.8-10.8,8.6-15.5c0.8-3.2,1.4-7.7-1-11.4c-0.6-1-2.8-3.1-5.6-3.7
				c-0.8-0.2-2.7-0.9-6.5,0.9c-4.4,2.1-6.9,5.6-8.2,7.5c-1,2.4-1.8,4.5-2.6,7.3c-1.3,5.1-3.5,17,1.6,29.8C44,87,47.5,83.5,51.9,78.4
				L51.9,78.4z"/>
			<path class="st3" d="M42.3,89.9c20.6-16.1,43.1-40,27.7-71.8c1.1-0.7,2.3-1.3,3.6-2c-1.2,0.3-2.5,0.7-3.9,1.2
				c-0.2-0.4-0.8-2.4-1-2.8c0.1,0.5,0.5,2.5,0.6,2.9C45,25.2,14.4,64.1,41.6,89.2c-4,3.6-3.9,3.8,0.4,0.9
				c5.1,19.8,42.4,24.1,47.1,22.9C70.2,108.9,52,100.1,42.3,89.9z M58.8,26.8c2.4-2.4,5.9-5.4,10.6-8.3c1.4,13,0.4,19.7-1.7,28.7
				C65,38.3,54.6,35.5,48,41C50.5,36.6,53.9,31.6,58.8,26.8L58.8,26.8z M40.1,59.4c7.1-30.1,50.3-15.7,1.6,29.8
				C36.6,76.4,38.8,64.5,40.1,59.4z"/>
		</g>
		<path class="st1" d="M42.3,86.2c4.7-11.1-2.2-19,4-28.6c3.6-5.4,12.8-4.4,11.2,3.4c-0.7,3.3-3.7,4.9-7.3,9
			C47.8,72.9,44.6,79,42.3,86.2L42.3,86.2z"/>
	</g>
</g>
<g id="Text">
	<g>
		<path class="st3" d="M129.5,13.8v17.8c-2.4,0-4.1,0.4-5,1.3s-1.5,2.6-1.7,5.3c-0.8,8.7-4.3,14.8-10.4,18.4
			c-3.2,1.9-7.8,2.8-13.8,2.8h-2.4V41.5H97c2.8,0,4.8-0.6,5.9-1.7s1.9-3.1,2.1-5.9c0.2-4.6,0.7-7.8,1.3-9.7s1.9-3.7,3.9-5.5
			c3.4-3.2,8.1-4.8,14.1-4.8L129.5,13.8L129.5,13.8z"/>
		<path class="st3" d="M151.9,23.4v35h-13.1v-35H151.9z M145.4,7.7c1.8,0,3.3,0.6,4.6,1.9c1.3,1.2,1.9,2.7,1.9,4.5
			c0,1.8-0.6,3.3-1.9,4.5c-1.2,1.2-2.8,1.8-4.7,1.8s-3.5-0.6-4.7-1.8s-1.9-2.7-1.9-4.5c0-1.7,0.6-3.2,1.9-4.5
			C142.1,8.3,143.6,7.7,145.4,7.7L145.4,7.7z"/>
		<path class="st3" d="M188.9,23.4l-10.8,21.3h12.4v13.8h-33.8l10.7-21.3h-11.1V23.4H188.9L188.9,23.4z"/>
		<path class="st3" d="M229.8,43h-19.9c-0.3-1-0.5-1.9-0.5-2.8c0-1.2,0.2-2.3,0.6-3.5h6.7c-0.5-2.6-1.9-3.9-4.4-3.9
			c-1.6,0-3,0.7-4,2.1s-1.6,3.2-1.6,5.4s0.5,4.1,1.5,5.5s2.3,2.1,3.9,2.1c1.3,0,2.6-0.7,3.8-2l7.5,9c-3.5,2.7-7.4,4.1-11.6,4.1
			c-5.2,0-9.6-1.8-13.1-5.2s-5.3-7.8-5.3-13s1.8-9.5,5.4-13s8-5.3,13.2-5.3s9.4,1.7,12.8,5.2s5.2,7.7,5.2,12.8
			C229.9,41.1,229.9,41.9,229.8,43L229.8,43z"/>
		<path class="st3" d="M256.8,10.4H270v29.2c0,5.4-1.4,9.7-4.2,13.1c-1.6,2-3.7,3.5-6.2,4.6s-5.1,1.7-7.7,1.7
			c-5.2,0-9.6-1.8-13.2-5.3s-5.4-7.8-5.4-12.9s1.8-9.2,5.3-12.8s7.8-5.4,12.7-5.4c0.8,0,1.9,0.1,3.5,0.2v14.5
			c-1.1-0.8-2.2-1.3-3.2-1.3c-1.4,0-2.5,0.5-3.5,1.5s-1.5,2.2-1.5,3.6s0.5,2.5,1.5,3.5s2.2,1.5,3.6,1.5c3.4,0,5.1-2.3,5.1-7
			L256.8,10.4L256.8,10.4z"/>
	</g>
	<g>
		<path class="st0" d="M109.6,66.6v28.7c0,4.7,1.7,7,5,7c1.3,0,2.4-0.4,3.3-1.1c1.4-1.1,2-2.9,1.8-4.7c-0.2-1.1-0.6-2-1.3-2.8
			c-0.9-1-2.1-1.5-3.4-1.5c-0.9,0-2,0.4-3.2,1.2c0,0-0.1,0-0.1,0V79c0,0,0,0,0.1,0c1.5-0.1,2.7-0.2,3.5-0.2c5.6,0,10.3,2.3,14.1,6.9
			c2.2,2.7,3.5,6,3.8,9.4c0.5,6-1.3,10.9-5.3,14.9c-3.6,3.5-8,5.3-13.2,5.3c-2.6,0-5.2-0.6-7.7-1.7s-4.6-2.7-6.2-4.6
			c-2.8-3.4-4.2-7.8-4.2-13.1V66.6L109.6,66.6L109.6,66.6z"/>
		<path class="st0" d="M152,79.6v34.9c0,0,0,0-0.1,0h-13c0,0-0.1,0-0.1,0V79.6c0,0,0,0,0.1,0L152,79.6C152,79.5,152,79.5,152,79.6z
			 M145.5,63.9c1.8,0,3.3,0.6,4.6,1.9c1.3,1.2,1.9,2.7,1.9,4.5c0,1.8-0.6,3.3-1.9,4.5c-1.2,1.2-2.8,1.8-4.7,1.8s-3.5-0.6-4.7-1.8
			s-1.9-2.7-1.9-4.5c0-1.7,0.6-3.2,1.9-4.5C142.1,64.5,143.7,63.9,145.5,63.9L145.5,63.9z"/>
		<path class="st0" d="M171.5,66.6v13.4c0,0,0,0,0.1,0h5.8c0,0,0.1,0,0.1,0v13.8c0,0,0,0-0.1,0h-5.8c0,0-0.1,0-0.1,0.1
			c0,2.8,0.4,4.7,1.3,5.7s2.5,1.6,4.8,1.6c0,0,0.1,0,0.1,0V115c0,0,0,0-0.1,0c-0.6,0-1.1,0-1.5,0c-3,0-5.8-0.7-8.4-2.1
			s-4.8-3.3-6.4-5.6c-2-3-3-7-3-12V66.6L171.5,66.6L171.5,66.6z"/>
		<path class="st3" d="M205.8,80v13.7c0,0,0,0-0.1,0c-1.8,0-3.1,0.4-3.8,1s-1.1,2.1-1.3,4.1c-0.6,6.8-3.2,11.5-7.9,14.3
			c-2.5,1.5-5.9,2.2-10.5,2.2h-1.8c0,0-0.1,0-0.1,0v-13.9h0.6c2.1,0,3.6-0.4,4.5-1.3s1.4-2.4,1.6-4.6c0.2-3.6,0.5-6.1,1-7.6
			s1.5-2.9,2.9-4.3c2.6-2.5,6.1-3.8,10.7-3.8L205.8,80C205.8,80,205.8,80,205.8,80z"/>
		<path class="st3" d="M244.5,99.1h-19.8c0,0-0.1,0-0.1,0c-0.3-1-0.4-1.9-0.4-2.7c0-1.2,0.2-2.3,0.6-3.4c0,0,0,0,0.1,0h6.6
			c0,0,0.1,0,0.1-0.1c-0.5-2.6-1.9-3.8-4.4-3.8c-1.6,0-3,0.7-4,2.1s-1.6,3.2-1.6,5.4s0.5,4.1,1.5,5.5s2.3,2.1,3.9,2.1
			c1.3,0,2.6-0.6,3.8-1.9c0,0,0.1,0,0.1,0l7.4,8.9c0,0,0,0.1,0,0.1c-3.5,2.7-7.3,4.1-11.6,4.1c-5.2,0-9.6-1.8-13.1-5.2
			s-5.3-7.8-5.3-13s1.8-9.5,5.4-13s8-5.3,13.2-5.3s9.4,1.7,12.8,5.2s5.2,7.7,5.2,12.8C244.7,97.2,244.7,98,244.5,99.1
			C244.6,99.1,244.5,99.1,244.5,99.1L244.5,99.1z"/>
		<path class="st3" d="M261.7,66.6v13.4c0,0,0,0,0,0h5.8c0,0,0,0,0,0v13.8c0,0,0,0,0,0h-5.8c0,0,0,0,0,0.1c0,2.8,0.5,4.7,1.3,5.7
			s2.5,1.6,4.8,1.6c0,0,0,0,0,0V115c0,0,0,0-0.1,0c-0.6,0-1.1,0-1.5,0c-3,0-5.8-0.7-8.4-2.1s-4.8-3.3-6.4-5.6c-2-3-3-7-3-12V66.6
			L261.7,66.6L261.7,66.6z"/>
	</g>
</g>
</svg>
