<?xml version="1.0" encoding="UTF-8"?>
<svg xmlns="http://www.w3.org/2000/svg" viewBox="0 0 359.24 793.47">
  <defs>
    <style>
      .cls-1 {
        fill: none;
      }

      .cls-2 {
        stroke: #336;
      }

      .cls-2, .cls-3 {
        fill: #336;
      }

      .cls-2, .cls-4 {
        stroke-miterlimit: 10;
      }

      .cls-4 {
        fill: #6ec3ce;
        stroke: #6ec3ce;
      }
    </style>
  </defs>
  <g id="_レイヤー_5のコピー_2" data-name="レイヤー 5のコピー 2">
    <path class="cls-4" d="m89.19,475.45c-1.14,2.48-9.4,13.75-19.57,18.95-.08-1.08-.23-1.99-.5-3.32-.29-2.01-.72-3.96-1.31-5.79-.13-.47-.28-.89-.45-1.29-1.44-3.8-3.66-6.96-6.81-8.79,2.2-2.66,4.38-5.58,6.44-8.74.13-.2.25-.39.38-.59,10.38,1.54,20.63,8.4,21.82,9.56Z"/>
  </g>
  <g id="_レイヤー_5のコピー" data-name="レイヤー 5のコピー">
    <path class="cls-2" d="m65.48,515.68c5.76-8.85,6.88-35.58-6.3-41.16,7.89,12.32,9.9,25.11,6.3,41.16Z"/>
    <g>
      <path class="cls-2" d="m.81,471.37c-.83-1.37.07-4.31,1.86-5.64,8.13-4.97,17.97,14.03,16.37,15.31-1.08.83-4.53-9.7-13.54-8.91-1.44.13-3.86.61-4.69-.76Z"/>
      <path class="cls-4" d="m4.95,484.46c-1.83-.47-1.97-4.09-.26-4.85,3.44-2.66,11.69,0,11.55.93-.11.78-5.73-1.88-9.08,2.24-.54.66-1.33,1.87-2.22,1.69Z"/>
      <path class="cls-2" d="m18.91,489.98c-1.72-1.16-2.43-4.34-1.39-6.48,0,0,1.09-2.25,4.74-2.94,8.09-1.54,23.05,25.1,27.03,32.39-3.86-4.18-6.88-7.65-8.92-10.01-4.08-4.75-6.33-7.59-10.31-10.01-2.34-1.42-4.12-2.5-6.69-2.65-2.21-.13-3.24.53-4.46-.29Z"/>
      <path class="cls-4" d="m32.98,463.62c.59-10.04,8.05-22.57,14.87-30.23,1-1.13,2.02-2.17,3.01-3.14-3.65-10.78-10-17.55-11.9-19.47-2.05,1.55-17.05,13.33-18.39,34.74-1.45,23.1,14.25,37.43,15.89,38.86.35-.31,1.15-1.05,2.23-2.17-4.04-6.2-6.06-12.61-5.71-18.6Z"/>
      <g>
        <path class="cls-1" d="m57.73,440.18c5.06.69,8.42,4.77,9.95,8.94.46-1.8.72-3.09.81-3.53,1.22-5.97,2.21-14.58.87-25.13-4.7,2.87-8.19,5.9-10.61,8.28-4.88,4.81-8.26,9.83-10.73,14.25,2.2-1.56,5.69-3.37,9.7-2.82Z"/>
        <path class="cls-1" d="m51.9,480.37c1.78-2.05,2.67-3.08,3.47-4.12,4.06-5.33,6.77-10.8,8.62-15.48.77-3.23,1.38-7.69-1.05-11.38-.63-.95-2.81-3.07-5.58-3.66-.79-.17-2.66-.93-6.46.92-4.43,2.15-6.87,5.65-8.24,7.45-1.05,2.4-1.85,4.54-2.56,7.34-1.29,5.07-3.46,17.02,1.57,29.77,2.3-2.21,5.82-5.73,10.24-10.83Z"/>
        <path class="cls-3" d="m42.28,491.91c20.56-16.06,43.05-40.02,27.71-71.82,1.12-.66,2.3-1.32,3.55-1.95-1.16.29-2.47.67-3.91,1.17-.2-.43-.78-2.4-.97-2.78.07.46.52,2.47.58,2.92-24.19,7.73-54.82,46.6-27.6,71.78-3.95,3.65-3.93,3.75.39.86,5.12,19.77,42.38,24.13,47.05,22.92-18.93-4.16-37.12-12.93-46.8-23.1Zm16.48-63.16c2.41-2.38,5.91-5.41,10.61-8.28,1.4,13.01.39,19.68-1.68,28.66-2.7-8.83-13.07-11.64-19.66-6.12,2.47-4.43,5.85-9.45,10.73-14.25Zm-18.67,32.68c7.12-30.15,50.27-15.71,1.57,29.77-5.04-12.75-2.86-24.71-1.57-29.77Z"/>
      </g>
      <path class="cls-2" d="m42.32,488.21c4.66-11.13-2.24-19.02,4.01-28.58,3.6-5.35,12.75-4.38,11.21,3.35-.74,3.3-3.74,4.85-7.26,8.97-2.52,2.94-5.66,9.09-7.97,16.26Z"/>
    </g>
  </g>
  <g id="Text">
    <g>
      <path class="cls-3" d="m129.5,415.78v17.78c-2.44,0-4.11.44-5.02,1.33s-1.49,2.64-1.73,5.26c-.8,8.69-4.26,14.83-10.36,18.41-3.24,1.87-7.83,2.8-13.78,2.8h-2.41v-17.87h.79c2.78,0,4.76-.56,5.94-1.69s1.87-3.11,2.06-5.93c.25-4.6.69-7.84,1.32-9.7s1.92-3.72,3.86-5.55c3.39-3.22,8.09-4.83,14.11-4.83h5.23Z"/>
      <path class="cls-3" d="m151.95,425.36v35.05h-13.15v-35.05h13.15Zm-6.54-15.64c1.78,0,3.32.63,4.62,1.88,1.3,1.25,1.95,2.74,1.95,4.45,0,1.83-.62,3.33-1.85,4.5-1.23,1.17-2.81,1.76-4.73,1.76s-3.5-.59-4.73-1.76c-1.23-1.17-1.85-2.67-1.85-4.5,0-1.71.65-3.19,1.95-4.45,1.3-1.25,2.84-1.88,4.62-1.88Z"/>
      <path class="cls-3" d="m188.93,425.36l-10.76,21.27h12.38v13.78h-33.79l10.69-21.34h-11.11v-13.71h32.59Z"/>
      <path class="cls-3" d="m229.78,445.01h-19.93c-.3-1.01-.46-1.93-.46-2.78,0-1.17.21-2.32.63-3.45h6.68c-.47-2.6-1.93-3.9-4.39-3.9-1.64,0-2.98.7-4.01,2.09s-1.55,3.18-1.55,5.36.5,4.11,1.49,5.52,2.3,2.11,3.92,2.11c1.31,0,2.58-.66,3.8-1.97l7.49,9c-3.49,2.74-7.37,4.11-11.64,4.11-5.2,0-9.57-1.75-13.11-5.24s-5.31-7.82-5.31-12.97,1.79-9.47,5.36-13.01,7.96-5.31,13.17-5.31,9.36,1.73,12.81,5.19,5.19,7.72,5.19,12.78c0,.52-.05,1.34-.14,2.46Z"/>
      <path class="cls-3" d="m256.82,412.42h13.15v29.21c0,5.37-1.41,9.74-4.22,13.11-1.62,1.95-3.67,3.49-6.17,4.64s-5.06,1.72-7.68,1.72c-5.23,0-9.63-1.76-13.22-5.27s-5.38-7.83-5.38-12.94,1.78-9.22,5.34-12.83,7.78-5.41,12.66-5.41c.77,0,1.95.07,3.52.21v14.48c-1.08-.84-2.16-1.27-3.23-1.27-1.36,0-2.53.5-3.5,1.49s-1.46,2.2-1.46,3.6.5,2.53,1.51,3.5,2.21,1.46,3.62,1.46c3.38,0,5.06-2.33,5.06-7v-28.72Z"/>
    </g>
    <g>
      <path class="cls-4" d="m109.59,468.56v28.72c0,4.66,1.68,7,5.03,7,1.26,0,2.36-.38,3.28-1.14,1.36-1.12,2.04-2.94,1.79-4.69-.15-1.07-.6-1.99-1.35-2.77-.94-.97-2.09-1.46-3.45-1.46-.94,0-2.01.4-3.22,1.21-.04.02-.08,0-.08-.04v-14.34s.02-.05.05-.05c1.52-.14,2.68-.21,3.46-.21,5.62,0,10.32,2.3,14.11,6.89,2.2,2.67,3.53,5.98,3.81,9.42.48,5.97-1.28,10.93-5.3,14.87-3.59,3.52-7.99,5.27-13.22,5.27-2.62,0-5.19-.57-7.68-1.72s-4.55-2.7-6.17-4.64c-2.81-3.38-4.22-7.75-4.22-13.11v-29.21h13.15Z"/>
      <path class="cls-4" d="m152.02,481.56v34.94s-.02.05-.05.05h-13.04s-.05-.02-.05-.05v-34.94s.02-.05.05-.05h13.04s.05.02.05.05Zm-6.54-15.7c1.78,0,3.32.63,4.62,1.88,1.3,1.25,1.95,2.74,1.95,4.45,0,1.83-.62,3.33-1.85,4.5-1.23,1.17-2.81,1.76-4.73,1.76s-3.5-.59-4.73-1.76c-1.23-1.17-1.85-2.67-1.85-4.5,0-1.71.65-3.19,1.95-4.45,1.3-1.25,2.84-1.88,4.62-1.88Z"/>
      <path class="cls-4" d="m171.46,468.56v13.38s.02.05.05.05h5.8s.05.02.05.05v13.78s-.02.05-.05.05h-5.8s-.05.03-.05.06c0,2.76.45,4.66,1.32,5.71s2.47,1.57,4.78,1.58c.03,0,.05.02.05.05v13.71s-.03.05-.06.05c-.65.02-1.14.03-1.46.03-2.98,0-5.78-.69-8.42-2.07s-4.75-3.26-6.35-5.62c-2.02-3.02-3.02-7.03-3.02-12.02v-28.79h13.15Z"/>
      <path class="cls-3" d="m205.81,482.05v13.74s-.03.05-.05.05c-1.82,0-3.08.35-3.76,1.04s-1.13,2.06-1.32,4.1c-.61,6.77-3.23,11.55-7.88,14.34-2.46,1.45-5.95,2.18-10.48,2.18h-1.77s-.05-.02-.05-.05v-13.87h.6c2.11,0,3.62-.44,4.52-1.32s1.42-2.42,1.56-4.62c.19-3.59.52-6.11,1-7.56s1.46-2.89,2.94-4.32c2.58-2.51,6.15-3.76,10.72-3.76h3.92s.05.02.05.05Z"/>
      <path class="cls-3" d="m244.5,501.15h-19.84s-.05-.02-.05-.04c-.3-.99-.44-1.9-.44-2.74,0-1.16.21-2.3.62-3.41,0-.02.03-.04.05-.04h6.57s.06-.03.05-.07c-.48-2.56-1.94-3.83-4.38-3.83-1.64,0-2.98.7-4.01,2.09s-1.55,3.18-1.55,5.36.5,4.11,1.49,5.52,2.3,2.11,3.92,2.11c1.3,0,2.55-.64,3.76-1.92.02-.02.06-.02.08,0l7.41,8.91s.02.06,0,.08c-3.48,2.72-7.34,4.08-11.59,4.08-5.2,0-9.57-1.75-13.11-5.24s-5.31-7.82-5.31-12.97,1.79-9.47,5.36-13.01,7.96-5.31,13.17-5.31,9.36,1.73,12.81,5.19,5.19,7.72,5.19,12.78c0,.51-.05,1.31-.14,2.41,0,.03-.03.05-.05.05Z"/>
      <path class="cls-3" d="m261.71,468.56v13.38s.02.05.05.05h5.8s.05.02.05.05v13.78s-.02.05-.05.05h-5.8s-.05.03-.05.06c0,2.76.45,4.66,1.32,5.71s2.47,1.57,4.78,1.58c.03,0,.05.02.05.05v13.71s-.03.05-.06.05c-.65.02-1.14.03-1.46.03-2.98,0-5.78-.69-8.42-2.07s-4.75-3.26-6.35-5.62c-2.02-3.02-3.02-7.03-3.02-12.02v-28.79h13.15Z"/>
    </g>
  </g>
</svg>