<svg xmlns="http://www.w3.org/2000/svg" xmlns:xlink="http://www.w3.org/1999/xlink" viewBox="0 0 1138.05 359.42"><defs><style>.cls-1,.cls-3,.cls-6{fill:#336;}.cls-1,.cls-4{stroke:#336;}.cls-1,.cls-2,.cls-3,.cls-4,.cls-7{stroke-miterlimit:10;}.cls-2,.cls-4{fill:#6ec3ce;}.cls-2{stroke:#6ec3ce;}.cls-3{stroke:#000;}.cls-5{fill:none;}.cls-7{stroke:#fff;fill:url(#名称未設定グラデーション_37);}</style><radialGradient id="名称未設定グラデーション_37" cx="580.72" cy="284.5" fy="291.12959703742007" r="19.04" gradientUnits="userSpaceOnUse"><stop offset="0" stop-color="#fff"/><stop offset="0" stop-color="#fcfefe"/><stop offset="0.11" stop-color="#b0dee4"/><stop offset="0.19" stop-color="#80cbd4"/><stop offset="0.23" stop-color="#6ec3ce"/><stop offset="0.99" stop-color="#7c7c9d" stop-opacity="0.68"/></radialGradient></defs><g id="触角"><path class="cls-1" d="M108.57,411.3c-3-4.63.26-14.65,6.69-19.16,29.17-16.89,64.47,47.64,58.74,52-3.89,2.81-16.25-32.93-48.58-30.26C120.25,414.29,111.57,416,108.57,411.3Z" transform="translate(-106.95 -204.85)"/><path class="cls-2" d="M123.44,455.75c-6.57-1.58-7.07-13.9-.92-16.49,12.36-9,41.94,0,41.46,3.16-.39,2.66-20.55-6.4-32.59,7.59C129.46,452.25,126.63,456.38,123.44,455.75Z" transform="translate(-106.95 -204.85)"/><path class="cls-3" d="M288.5,399.5" transform="translate(-106.95 -204.85)"/></g><g id="胴体"><path class="cls-1" d="M173.5,474.5c-6.16-4-8.71-14.75-5-22,0,0,3.9-7.64,17-10,29-5.23,82.69,85.25,97,110-13.83-14.21-24.7-26-32-34-14.65-16.12-22.7-25.8-37-34-8.4-4.82-14.79-8.49-24-9C181.57,475.06,177.88,477.31,173.5,474.5Z" transform="translate(-106.95 -204.85)"/></g><g id="背面"><path class="cls-2" d="M224,385c2.12-34.08,28.9-76.64,53.36-102.68,3.61-3.84,7.24-7.39,10.81-10.67A176,176,0,0,0,245.5,205.5c-7.36,5.28-61.18,45.28-66,118-5.2,78.46,51.14,127.11,57,132,1.26-1.06,4.14-3.55,8-7.36C230,427.08,222.75,405.31,224,385Z" transform="translate(-106.95 -204.85)"/></g><g id="レイヤー_5のコピー_2" data-name="レイヤー 5のコピー 2"><path class="cls-1" d="M359.5,320.5" transform="translate(-106.95 -204.85)"/><path class="cls-3" d="M438.5,333.5" transform="translate(-106.95 -204.85)"/><path class="cls-2" d="M414.94,425.15c-4.09,8.42-22.95,46.71-59.44,64.35a75.2,75.2,0,0,0-1.81-11.27,112.72,112.72,0,0,0-4.7-19.65,31.84,31.84,0,0,0-1.62-4.37c-5.18-12.92-13.12-23.63-24.42-29.85A332.05,332.05,0,0,0,346,394.68l1.36-2C384.63,397.92,410.66,421.2,414.94,425.15Z" transform="translate(-106.95 -204.85)"/><path class="cls-4" d="M299.5,348.5" transform="translate(-106.95 -204.85)"/></g><g id="レイヤー_5のコピー" data-name="レイヤー 5のコピー"><path class="cls-1" d="M340.6,561.78C361.28,531.74,365.27,441,318,422,346.33,463.86,353.54,507.29,340.6,561.78Z" transform="translate(-106.95 -204.85)"/><path class="cls-1" d="M359.5,320.5" transform="translate(-106.95 -204.85)"/><path class="cls-3" d="M438.5,333.5" transform="translate(-106.95 -204.85)"/><path class="cls-5" d="M312.82,305.34c18.15,2.34,30.2,16.19,35.72,30.37,1.63-6.1,2.59-10.49,2.91-12a247,247,0,0,0,3.12-85.35A208.76,208.76,0,0,0,316.5,266.5,214.05,214.05,0,0,0,278,314.91C285.89,309.61,298.41,303.48,312.82,305.34Z" transform="translate(-106.95 -204.85)"/><path class="cls-5" d="M291.88,441.85c6.38-7,9.59-10.46,12.43-14a217.51,217.51,0,0,0,30.93-52.59c2.77-11,4.94-26.13-3.78-38.64-2.26-3.25-10.1-10.43-20-12.44-2.84-.58-9.54-3.15-23.17,3.11-15.89,7.29-24.66,19.18-29.58,25.29a146.66,146.66,0,0,0-9.2,24.92c-4.62,17.21-12.42,57.82,5.65,101.13C263.38,471.14,276,459.16,291.88,441.85Z" transform="translate(-106.95 -204.85)"/><path class="cls-6" d="M257.35,481c73.78-54.55,154.49-135.94,99.42-243.92q6-3.39,12.73-6.62c-4.15,1-8.86,2.29-14,4-.73-1.47-2.8-8.15-3.49-9.46.26,1.56,1.85,8.38,2.08,9.92-86.8,26.27-196.7,158.28-99,243.8-14.17,12.4-14.12,12.74,1.39,2.93,18.39,67.14,141.3,81.94,158.06,77.85C346.58,545.37,292.06,515.57,257.35,481ZM316.5,266.5a208.76,208.76,0,0,1,38.07-28.12c5,44.19,1.41,66.86-6,97.33-9.71-30-46.9-39.53-70.53-20.8A214.05,214.05,0,0,1,316.5,266.5Zm-67,111c25.53-102.41,180.38-53.36,5.65,101.13C237.08,435.32,244.88,394.71,249.5,377.5Z" transform="translate(-106.95 -204.85)"/><path class="cls-4" d="M299.5,348.5" transform="translate(-106.95 -204.85)"/><path class="cls-1" d="M257.5,468.5c16.73-37.8-8-64.6,14.41-97.06,12.91-18.18,45.74-14.87,40.23,11.37-2.65,11.2-13.41,16.48-26.05,30.45C277,423.25,265.77,444.13,257.5,468.5Z" transform="translate(-106.95 -204.85)"/></g><g id="Text"><path class="cls-5" d="M689.75,312c-13.38,0-23.56,29.33-23.56,48.64,0,9.88,2.28,14.59,7.75,14.59s12-7.3,16.87-18.7L698.26,319C696,313.48,693.09,312,689.75,312Z" transform="translate(-106.95 -204.85)"/><path class="cls-5" d="M902.27,312c-13.38,0-23.56,29.33-23.56,48.64,0,9.88,2.28,14.59,7.75,14.59,5.63,0,12-7.3,16.87-18.7L910.78,319C908.5,313.48,905.61,312,902.27,312Z" transform="translate(-106.95 -204.85)"/><path class="cls-6" d="M558.55,279l.52-2.79c-10.79.7-21.92,1-30.8,1-4.52,0-8.17,0-11.48-.17-1.74,7.48-4.7,12.35-10.26,21.75l-33.06,56c-6.44-25.06-12.18-50.29-14.79-62.64-1.05-4.87-1.92-9.57-1.22-15.31-4.87.17-9.57.17-16,.17-6.61,0-20.88-.17-33.06-1l-.35,2.61c8.36,3,13.4,4,17.4,9.22l-17.57,73.6c-4,17.57-6.79,20.36-23.49,28.71l-.52,2.78c8.52-.52,16-.69,23.66-.69,7.14,0,14.62.17,21.92.69l.53-2.78c-11.49-7-15.49-9.4-15.49-16.36,0-3.3,1-9.74,2.79-19.83,1.56-9.05,7.83-41.76,11.48-59.86a92.35,92.35,0,0,1,2.78,8.88c5.57,20.88,13.4,54.46,21.93,89.95h3.3l58.81-98.83c-1.56,10.27-5,28.89-7,39.5C506.35,346,502,370.34,501,374.34c-2.79,11.31-3.31,13.4-14.79,15.84l-.35,2.78c9.57-.52,17.92-.69,26.1-.69,8.52,0,16.69.21,26.08.73l.56-2-.56-1-3.29-.87c-4.7-1-6.26-2.26-6.26-6.43,0-5.05,5.74-36.37,8.18-49.24,2.26-12,6.61-34.63,7.48-38.46,2.61-10.79,3.48-13.22,11.31-15.31Z" transform="translate(-106.95 -204.85)"/><path class="cls-6" d="M576.71,373.67c-1.07,0-1.67-.76-1.67-2.28,0-1.83.76-5.32,1.67-10.34l5.17-24.77c2-9.88,3-15.51,5.47-27.06l-1.22-.61c-9,3-12.77,3.65-31.31,5.93l-.46,1.83,3.5,1.21c3.19,1.22,4.1,1.67,4.1,3.19,0,2.13-1.67,10-2.73,15.05l-4,19.91c-2.13,10-3,15-3,18.09,0,7.6,3.64,12.31,13.37,12.31,12.47,0,19.46-9.27,22.19-22.19l-1.82-.61C582,371.54,579,373.67,576.71,373.67Z" transform="translate(-106.95 -204.85)"/><path class="cls-6" d="M626.7,323.21h15.8l1.83-8.67h-16l3-14.29-1.52-.76c-12.31,8.36-20.22,12.32-33,18.7L596.6,320l4.41,1.07c2.58.61,3.34.91,3.34,1.67,0,.46-.45,2.74-1.06,5.78l-4.71,22c-2,9.58-3.8,18.7-3.8,22.65,0,10.34,6.84,13.83,15.81,13.83,13.52,0,22.8-8.05,26.6-23.1l-1.68-.61c-4.86,8.51-10,11.71-14.59,11.71-2.58,0-3.34-1.68-3.34-3.8,0-1.83,1.52-9.88,3.19-18.55Z" transform="translate(-106.95 -204.85)"/><path class="cls-6" d="M712.54,373.82c-1.06,0-1.52-.61-1.52-2.28a62.53,62.53,0,0,1,1.37-9.58l9.88-52.74H720l-11.55,3.95c-4.86-3.19-11.09-4.56-18.09-4.56-30.7,0-46.51,26.6-46.51,53.66,0,14.89,7.6,24.77,20.52,24.77,10.95,0,20.22-7.45,25.39-21.58l.76.15a35.82,35.82,0,0,0-1.22,8.36c0,7.45,3.65,12.16,12.62,12.16,12.46,0,19.6-8.82,21.73-22.19l-1.67-.61C718.17,371.39,715.13,373.82,712.54,373.82Zm-21.73-17.33c-4.86,11.4-11.25,18.7-16.87,18.7s-7.75-4.71-7.75-14.59c0-19.31,10.18-48.64,23.56-48.64,3.34,0,6.23,1.52,8.51,7Z" transform="translate(-106.95 -204.85)"/><path class="cls-6" d="M839.75,373.82c-.91,0-1.67-.46-1.67-2.13s1.37-10,3.49-20.52,4.11-21.43,4.11-27.2c0-8.52-5.47-15.36-16.27-15.36-11.09,0-18.54,7.45-26,22.35a43,43,0,0,0,.61-7c0-8.52-4.86-15.36-16-15.36-10.94,0-18.69,7.45-26.29,22.65l-1.07-.3c1.22-4.56,2.44-8.67,2.44-12.47,0-5.47-4-8.51-10.95-8.51-6.69,0-16.41,3.5-22.65,9.12l.61,1.52a34,34,0,0,1,7.3-.91c2.73,0,3.19.76,3.19,2.28,0,2.89-1.22,10.34-2.89,19.45l-8.21,43.47H751.9l9.57-48.79c5.48-8.51,12.16-14.43,16.87-14.43,2.89,0,4,1.82,4,3.95,0,4.1-2.44,16.87-3.65,23.86l-6.54,35.41h21.74l6.23-33.74c.91-4.86,1.82-10,2.58-14.74,5.17-8.66,11.4-14.74,16.42-14.74,3,0,4.1,1.82,4.1,4.25,0,4.87-2.43,17.33-3.34,22-1.22,7.6-4.26,21-4.26,25.84,0,7,4,12.31,13.38,12.31,12,0,19-7.9,21.73-22.19l-1.82-.61C845.37,371.24,842,373.82,839.75,373.82Z" transform="translate(-106.95 -204.85)"/><path class="cls-6" d="M934.49,363.33c-3.8,8.06-6.84,10.49-9.42,10.49-1.07,0-1.52-.61-1.52-2.28a61.24,61.24,0,0,1,1.37-9.58l9.88-52.74h-2.28L921,313.17c-4.87-3.19-11.1-4.56-18.09-4.56-30.7,0-46.51,26.6-46.51,53.66,0,14.89,7.6,24.77,20.52,24.77,10.94,0,20.21-7.45,25.38-21.58l.76.15a35.82,35.82,0,0,0-1.22,8.36c0,7.45,3.65,12.16,12.62,12.16,12.46,0,19.61-8.82,21.74-22.19Zm-31.16-6.84c-4.86,11.4-11.24,18.7-16.87,18.7-5.47,0-7.75-4.71-7.75-14.59,0-19.31,10.18-48.64,23.56-48.64,3.34,0,6.23,1.52,8.51,7Z" transform="translate(-106.95 -204.85)"/><path class="cls-6" d="M579.33,277.47a11.83,11.83,0,0,0-12.09,12.09c0,5.86,3.31,9.93,9.67,9.93,7.76,0,12.09-6.11,12.09-12.22C589,282.06,586,277.47,579.33,277.47Z" transform="translate(-106.95 -204.85)"/><path class="cls-6" d="M977.61,385.21c-7.3,0-15.05.3-23.41.76l.61-2.43,2.73-.61c6.24-1.37,7.6-3,9.88-11.85,1.22-4.72,5-24.93,7.3-36.94,2.74-13.68,7-36,7-41,0-4-1.52-4.86-6.23-6.08l-2.43-.6.45-2.44c8.52.31,16.12.61,23.11.61,7.6,0,14.74-.3,23.1-.61l-.3,2.44-2.44.6c-7,1.83-8.05,4.11-9.88,12.16-2.27,10.79-5.31,26.15-6.84,33.9-2.73,14.28-7.44,39.67-7.44,43.47,0,4.1,1.52,5.32,7.9,5.32a58.94,58.94,0,0,0,6.69-.31c13.22-.76,21.13-8.36,37.54-33.74h2.59c-4.26,14.59-8.67,29.18-10.49,38.45C1017.28,385.82,989.92,385.21,977.61,385.21Z" transform="translate(-106.95 -204.85)"/><path class="cls-6" d="M1131.91,364.69c-2.13,13.38-9.28,22.19-21.74,22.19-9,0-12.61-4.71-12.61-12.16a35.76,35.76,0,0,1,1.21-8.36l-.76-.15c-5.17,14.14-14.44,21.58-25.38,21.58-12.92,0-20.52-9.87-20.52-24.77,0-27.06,15.81-53.65,46.51-53.65,7,0,13.22,1.36,18.09,4.56l11.55-4h2.28l-9.88,52.75a62.45,62.45,0,0,0-1.37,9.57c0,1.67.46,2.28,1.52,2.28,2.58,0,5.62-2.43,9.42-10.49Zm-27.39-45c-2.28-5.47-5.16-7-8.51-7-13.37,0-23.56,29.33-23.56,48.64,0,9.88,2.28,14.59,7.76,14.59s12-7.3,16.87-18.7Z" transform="translate(-106.95 -204.85)"/><path class="cls-6" d="M1214.67,334.44c0,26.3-15.05,53.35-47,53.35a36.82,36.82,0,0,1-19.3-5h-1.52l-9.88,5.47h-1.82l17.48-86.64c1.06-5.16,2-10,2-12.31,0-1.52-.45-2-3.8-3l-3.65-1.21.31-1.67c17.93-2.13,23.1-3.5,32.07-6.54l1.37.61c-2.13,7.75-4,16.11-4.72,20.21l-1.82,8.82a180,180,0,0,1-6.53,24l1.36.46c6.69-16.11,16.72-21.58,24.63-21.58C1207.53,309.37,1214.67,318.49,1214.67,334.44Zm-29.5.92c0-9.12-2.12-14.14-7.14-14.14-6.23,0-12.77,7.6-17.48,19l-7.75,37.7c2,4.71,4.56,6.68,8.06,6.68C1175,384.6,1185.17,355.12,1185.17,335.36Z" transform="translate(-106.95 -204.85)"/><path class="cls-6" d="M1211.21,375.63c0-8.35,5.78-14.59,13.53-14.59,6.84,0,11.25,4.56,11.25,11.25,0,8.51-5.32,14.59-13.53,14.59C1215.62,386.88,1211.21,382.32,1211.21,375.63Z" transform="translate(-106.95 -204.85)"/><path class="cls-6" d="M546.44,443.17l6.38-40.32h11.87a14.63,14.63,0,0,1,5.27.89,9.54,9.54,0,0,1,3.75,2.55,9.37,9.37,0,0,1,2,3.95,12.74,12.74,0,0,1,.14,5.15l-2.41,15.18a15,15,0,0,1-1.76,5.18,14.31,14.31,0,0,1-3.3,4,14.68,14.68,0,0,1-4.57,2.55,16.68,16.68,0,0,1-5.54.9Zm6.94-5.6h5.77a8.28,8.28,0,0,0,5.51-1.91,8,8,0,0,0,2.78-5.09l2.4-15.18a5.6,5.6,0,0,0-6-6.94H558Z" transform="translate(-106.95 -204.85)"/><path class="cls-6" d="M592.19,443.73a14.6,14.6,0,0,1-5.15-.84,9.26,9.26,0,0,1-3.67-2.41,8.71,8.71,0,0,1-2-3.75,12,12,0,0,1-.11-4.93l1.29-8.06a14.69,14.69,0,0,1,1.68-5A12.35,12.35,0,0,1,587.4,415a14.36,14.36,0,0,1,4.42-2.38,17,17,0,0,1,5.46-.84,14.45,14.45,0,0,1,5.13.84,9.34,9.34,0,0,1,3.64,2.4,9,9,0,0,1,2,3.78,11.46,11.46,0,0,1,.14,4.91l-.89,5.65H587.65l-.33,2.19a6.51,6.51,0,0,0,1,5.23,5.7,5.7,0,0,0,4.71,1.88,10.52,10.52,0,0,0,4.2-.79,6.56,6.56,0,0,0,2.85-2.18h6a12.11,12.11,0,0,1-2.16,3.28,13.82,13.82,0,0,1-3.16,2.51,16.06,16.06,0,0,1-4,1.63A17.71,17.71,0,0,1,592.19,443.73ZM602,425l.22-1.23q.62-3.25-1-5.07a6,6,0,0,0-4.82-1.82,7.43,7.43,0,0,0-5.2,1.82,8.74,8.74,0,0,0-2.64,5.07l-.22,1.23Z" transform="translate(-106.95 -204.85)"/><path class="cls-6" d="M625.79,443.73a14.6,14.6,0,0,1-5.15-.84,9.26,9.26,0,0,1-3.67-2.41,8.71,8.71,0,0,1-2-3.75,12,12,0,0,1-.11-4.93l1.29-8.06a14.69,14.69,0,0,1,1.68-5A12.35,12.35,0,0,1,621,415a14.36,14.36,0,0,1,4.42-2.38,17,17,0,0,1,5.46-.84,14.45,14.45,0,0,1,5.13.84,9.34,9.34,0,0,1,3.64,2.4,9,9,0,0,1,2,3.78,11.46,11.46,0,0,1,.14,4.91l-.89,5.65H621.25l-.33,2.19a6.51,6.51,0,0,0,1,5.23,5.7,5.7,0,0,0,4.71,1.88,10.52,10.52,0,0,0,4.2-.79,6.56,6.56,0,0,0,2.85-2.18h6a12.11,12.11,0,0,1-2.16,3.28,13.82,13.82,0,0,1-3.16,2.51,16.06,16.06,0,0,1-4,1.63A17.71,17.71,0,0,1,625.79,443.73Zm9.8-18.76.22-1.23q.62-3.25-.95-5.07a6,6,0,0,0-4.82-1.82,7.43,7.43,0,0,0-5.2,1.82,8.74,8.74,0,0,0-2.64,5.07L622,425Z" transform="translate(-106.95 -204.85)"/><path class="cls-6" d="M645.67,452.69l6.38-40.32h5.88l-.84,5.32h.45a8.48,8.48,0,0,1,3.53-4.34,10.71,10.71,0,0,1,5.82-1.54,9.56,9.56,0,0,1,4.15.86,7.59,7.59,0,0,1,2.91,2.47,9.74,9.74,0,0,1,1.54,3.81,13.92,13.92,0,0,1,0,4.9l-1.23,7.73a15.85,15.85,0,0,1-4.23,8.93,11.2,11.2,0,0,1-8.15,3.22,8.44,8.44,0,0,1-5.32-1.54,5.84,5.84,0,0,1-2.18-4.34h-.45s0,.24-.06.61-.07.82-.11,1.35-.09,1.08-.17,1.68-.15,1.15-.22,1.68l-1.51,9.52Zm14.78-14.34a7.35,7.35,0,0,0,5.13-1.85,8.2,8.2,0,0,0,2.54-5L669.3,424a6.17,6.17,0,0,0-.95-5,5.45,5.45,0,0,0-4.54-1.82,7.06,7.06,0,0,0-4.9,1.84,8.31,8.31,0,0,0-2.55,5l-1.23,7.62a6,6,0,0,0,1,4.92A5.2,5.2,0,0,0,660.45,438.35Z" transform="translate(-106.95 -204.85)"/><path class="cls-6" d="M680.83,443.17l6.39-40.32h11.87a14.53,14.53,0,0,1,5.26.89,9.65,9.65,0,0,1,3.76,2.55,9.37,9.37,0,0,1,2,3.95,12.74,12.74,0,0,1,.14,5.15l-2.41,15.18a15.19,15.19,0,0,1-1.76,5.18,14.17,14.17,0,0,1-3.31,4,14.52,14.52,0,0,1-4.56,2.55,16.68,16.68,0,0,1-5.54.9Zm6.95-5.6h5.77a8.28,8.28,0,0,0,5.51-1.91,8,8,0,0,0,2.77-5.09l2.41-15.18a5.6,5.6,0,0,0-6-6.94h-5.77Z" transform="translate(-106.95 -204.85)"/><path class="cls-6" d="M714.83,443.17l.89-5.6h11.15L730,417.91h-9.69l.89-5.54h15.63l-4,25.2h9.07l-.89,5.6ZM730,404a4.22,4.22,0,0,1,4.36-3.64h1.35a3.37,3.37,0,0,1,2.63,1,2.92,2.92,0,0,1,.62,2.6,4.09,4.09,0,0,1-1.49,2.58,4.61,4.61,0,0,1-2.94.95h-1.29a3.5,3.5,0,0,1-2.63-.93A2.74,2.74,0,0,1,730,404Z" transform="translate(-106.95 -204.85)"/><path class="cls-6" d="M750.67,412.37h6l3.81,20.72a16.91,16.91,0,0,1,.28,2.15c0,.69.07,1.3.11,1.82v1.63h.45a16.25,16.25,0,0,1,.33-1.63,17,17,0,0,1,.51-1.82,12,12,0,0,1,1-2.15l10-20.72h6.5L764,443.17h-7.16Z" transform="translate(-106.95 -204.85)"/><path class="cls-6" d="M793.79,443.73a14.66,14.66,0,0,1-5.16-.84,9.29,9.29,0,0,1-3.66-2.41,8.61,8.61,0,0,1-2-3.75,11.88,11.88,0,0,1-.11-4.93l1.28-8.06a15.14,15.14,0,0,1,1.68-5A12.38,12.38,0,0,1,789,415a14.36,14.36,0,0,1,4.42-2.38,17,17,0,0,1,5.46-.84,14.45,14.45,0,0,1,5.13.84,9.42,9.42,0,0,1,3.64,2.4,9,9,0,0,1,2,3.78,11.62,11.62,0,0,1,.14,4.91l-.89,5.65H789.25l-.34,2.19c-.33,2.24,0,4,1,5.23a5.69,5.69,0,0,0,4.7,1.88,10.61,10.61,0,0,0,4.21-.79,6.56,6.56,0,0,0,2.85-2.18h6a11.84,11.84,0,0,1-2.15,3.28,13.66,13.66,0,0,1-3.17,2.51,16,16,0,0,1-4,1.63A17.71,17.71,0,0,1,793.79,443.73Zm9.8-18.76.22-1.23q.62-3.25-.95-5.07a6,6,0,0,0-4.82-1.82,7.46,7.46,0,0,0-5.21,1.82,8.79,8.79,0,0,0-2.63,5.07L790,425Z" transform="translate(-106.95 -204.85)"/><path class="cls-6" d="M823.3,438.91a5.69,5.69,0,0,1,1.9-3.5A5.62,5.62,0,0,1,829,434a4,4,0,0,1,3.3,1.37,4.25,4.25,0,0,1,.79,3.5,5.48,5.48,0,0,1-1.93,3.5,5.78,5.78,0,0,1-3.79,1.32,4.14,4.14,0,0,1-3.33-1.35A4,4,0,0,1,823.3,438.91Zm3.64-22.17a6,6,0,0,1,1.93-3.56,5.46,5.46,0,0,1,3.78-1.37,3.88,3.88,0,0,1,4.14,4.93,5.68,5.68,0,0,1-2,3.44,5.61,5.61,0,0,1-3.75,1.32,4.17,4.17,0,0,1-3.36-1.32A4.05,4.05,0,0,1,826.94,416.74Z" transform="translate(-106.95 -204.85)"/><path class="cls-6" d="M882.88,443.17l.84-5.38h8.74l4.7-29.57h-8.74l.84-5.37H912.9l-.84,5.37h-8.74l-4.7,29.57h8.73l-.84,5.38Z" transform="translate(-106.95 -204.85)"/><path class="cls-6" d="M915.92,443.17l4.87-30.8h5.83l-.84,5.32h.5a8.29,8.29,0,0,1,3.42-4.34,10.41,10.41,0,0,1,5.76-1.54,9.31,9.31,0,0,1,4,.81,7.26,7.26,0,0,1,2.83,2.3,8.79,8.79,0,0,1,1.51,3.55,13,13,0,0,1,0,4.59l-3.19,20.11h-6.11l3.08-19.43a6.54,6.54,0,0,0-.84-4.93,4.81,4.81,0,0,0-4.14-1.74,7.23,7.23,0,0,0-4.82,1.65,7.87,7.87,0,0,0-2.57,4.57l-3.14,19.88Z" transform="translate(-106.95 -204.85)"/><path class="cls-6" d="M952.88,412.37h8.68l1.51-9.52h6.16l-1.51,9.52h11.82l-.84,5.54H966.82l-2.57,16.41a2.65,2.65,0,0,0,.5,2.38,3.09,3.09,0,0,0,2.41.87H975l-.9,5.6H966c-2.87,0-5-.81-6.41-2.41s-1.89-3.75-1.48-6.44l2.57-16.41H952Z" transform="translate(-106.95 -204.85)"/><path class="cls-6" d="M995.38,443.73a14.6,14.6,0,0,1-5.15-.84,9.18,9.18,0,0,1-3.67-2.44,8.82,8.82,0,0,1-2-3.83,12.4,12.4,0,0,1-.12-5l1.24-7.68a15.13,15.13,0,0,1,1.68-5,12.83,12.83,0,0,1,3.16-3.81,14.13,14.13,0,0,1,4.45-2.4,17.27,17.27,0,0,1,5.49-.84,14.58,14.58,0,0,1,5.18.84,9.34,9.34,0,0,1,3.64,2.4,8.82,8.82,0,0,1,2,3.81,12.59,12.59,0,0,1,.11,5l-1.18,7.68a14.15,14.15,0,0,1-4.87,8.9A15.11,15.11,0,0,1,995.38,443.73Zm-4.81-12.15a5.22,5.22,0,0,0,5.71,6.71,7.48,7.48,0,0,0,7.84-6.71l1.17-7.68a6,6,0,0,0-1.06-4.93,5.77,5.77,0,0,0-4.65-1.79A7.65,7.65,0,0,0,994.4,419a7.93,7.93,0,0,0-2.6,4.9Z" transform="translate(-106.95 -204.85)"/><path class="cls-6" d="M1019.13,427.88l1-6.38,26.55-11.76-1,6.27-17.92,7.56a12.76,12.76,0,0,1-1.48.53c-.47.13-.89.23-1.26.31s-.81.13-1.18.17l-.06.44c.34.08.71.15,1.12.23a9.13,9.13,0,0,1,1.15.33,8.8,8.8,0,0,1,1.26.56l15.51,7.68-.89,5.82Z" transform="translate(-106.95 -204.85)"/><path class="cls-6" d="M1062.92,443.73a14.6,14.6,0,0,1-5.15-.84,9.26,9.26,0,0,1-3.67-2.41,8.66,8.66,0,0,1-2-3.81,12.31,12.31,0,0,1-.11-5l2.74-17.36a15.44,15.44,0,0,1,1.68-5,12.26,12.26,0,0,1,3.17-3.78,14.25,14.25,0,0,1,4.42-2.38,17,17,0,0,1,5.46-.84q5.49,0,8.46,3.1c2,2.08,2.82,4.87,2.52,8.38h-6a5.4,5.4,0,0,0-1.35-4.45,5.89,5.89,0,0,0-4.42-1.6,7.74,7.74,0,0,0-5.24,1.82,8,8,0,0,0-2.6,5l-2.69,17a6,6,0,0,0,1,5,5.73,5.73,0,0,0,4.65,1.79,7.56,7.56,0,0,0,7.73-6h6a14.39,14.39,0,0,1-5.12,8.42A14.88,14.88,0,0,1,1062.92,443.73Z" transform="translate(-106.95 -204.85)"/><path class="cls-6" d="M1096.18,443.73a14.6,14.6,0,0,1-5.15-.84,9.18,9.18,0,0,1-3.67-2.44,9,9,0,0,1-2-3.83,12.59,12.59,0,0,1-.11-5l1.23-7.68a15.6,15.6,0,0,1,1.68-5,13,13,0,0,1,3.17-3.81,14.13,14.13,0,0,1,4.45-2.4,17.27,17.27,0,0,1,5.49-.84,14.58,14.58,0,0,1,5.18.84,9.34,9.34,0,0,1,3.64,2.4,8.82,8.82,0,0,1,2,3.81,12.59,12.59,0,0,1,.11,5l-1.18,7.68a14.15,14.15,0,0,1-4.87,8.9A15.13,15.13,0,0,1,1096.18,443.73Zm-4.81-12.15a5.21,5.21,0,0,0,5.71,6.71,7.48,7.48,0,0,0,7.84-6.71l1.17-7.68A6,6,0,0,0,1105,419a5.77,5.77,0,0,0-4.65-1.79,7.65,7.65,0,0,0-5.18,1.82,7.93,7.93,0,0,0-2.6,4.9Z" transform="translate(-106.95 -204.85)"/><path class="cls-6" d="M1118.81,431.58l1.23-7.73a17.57,17.57,0,0,1,1.54-5,13.72,13.72,0,0,1,2.71-3.78,11.56,11.56,0,0,1,8.12-3.24,8.48,8.48,0,0,1,5.38,1.54,5.63,5.63,0,0,1,2.13,4.34h.5c0-.64.09-1.27.17-1.91s.14-1.15.2-1.76.12-1.17.19-1.65l1.51-9.52h6.11l-6.39,40.32h-5.82l.84-5.32h-.5a8.61,8.61,0,0,1-3.53,4.34,10.86,10.86,0,0,1-5.83,1.54,8.44,8.44,0,0,1-6.44-2.49,9.65,9.65,0,0,1-2.35-6.86q0-.67.06-1.38C1118.67,432.54,1118.73,432.06,1118.81,431.58Zm11.64,6.77a7,7,0,0,0,4.93-1.85,8.18,8.18,0,0,0,2.52-4.92l1.23-7.62a6.18,6.18,0,0,0-1-5,5.23,5.23,0,0,0-4.37-1.84,7.27,7.27,0,0,0-5.09,1.82,8.15,8.15,0,0,0-2.52,5l-1.23,7.56a6.15,6.15,0,0,0,1,5A5.39,5.39,0,0,0,1130.45,438.35Z" transform="translate(-106.95 -204.85)"/><path class="cls-6" d="M1163.38,443.73a14.6,14.6,0,0,1-5.15-.84,9.33,9.33,0,0,1-3.67-2.41,8.82,8.82,0,0,1-2-3.75,12,12,0,0,1-.11-4.93l1.29-8.06a15.14,15.14,0,0,1,1.68-5,12.35,12.35,0,0,1,3.16-3.75,14.42,14.42,0,0,1,4.43-2.38,17,17,0,0,1,5.46-.84,14.35,14.35,0,0,1,5.12.84,9.27,9.27,0,0,1,3.64,2.4,9,9,0,0,1,2,3.78,11.62,11.62,0,0,1,.14,4.91l-.9,5.65h-19.66l-.33,2.19a6.48,6.48,0,0,0,1,5.23,5.68,5.68,0,0,0,4.7,1.88,10.52,10.52,0,0,0,4.2-.79,6.59,6.59,0,0,0,2.86-2.18h6a11.66,11.66,0,0,1-2.16,3.28,13.6,13.6,0,0,1-3.16,2.51,16.06,16.06,0,0,1-4,1.63A17.6,17.6,0,0,1,1163.38,443.73Zm9.8-18.76.23-1.23q.61-3.25-1-5.07a6,6,0,0,0-4.81-1.82,7.44,7.44,0,0,0-5.21,1.82,8.73,8.73,0,0,0-2.63,5.07l-.23,1.23Z" transform="translate(-106.95 -204.85)"/><path class="cls-6" d="M1186.34,433.42l17.87-7.61a14.6,14.6,0,0,1,1.48-.56c.47-.15.89-.26,1.26-.34a6.64,6.64,0,0,1,1.17-.22l.06-.45a6.77,6.77,0,0,1-1.12-.23,8.39,8.39,0,0,1-2.41-.84L1189,415.33l1-5.59,22.79,11.76-1.07,6.38-26.48,11.76Z" transform="translate(-106.95 -204.85)"/><rect class="cls-6" x="431.05" y="185.15" width="707" height="3"/><path class="cls-7" d="M587.76,297c2.3-2.64,4.84-7.61,4-12a6.55,6.55,0,0,1,0-4c.64-1.67,1.65-1.53,2.63-3.26s1.56-4.84.37-6.74a6.06,6.06,0,0,1-1-2,2.66,2.66,0,0,1,0-2c.41-.7,1.33-.71,3-1,2.34-.39,4.11-.69,4.18-1.2.11-.79-3.93-2.24-7.86-2.34a6.46,6.46,0,0,0-3.32.54,6.81,6.81,0,0,0-3,4c-1.12,3.21.23,4.69-1,6-.8.85-1.77.65-5,1a49.48,49.48,0,0,0-6,1c-5.83,1.57-8.73,8.34-8.93,8.81-.69,1.68-2.86,6.94-.08,12,2.55,4.6,7.81,6.41,12,6.23A14.39,14.39,0,0,0,587.76,297Z" transform="translate(-106.95 -204.85)"/></g></svg>